<mxfile host="app.diagrams.net" modified="2023-09-16T07:41:00.970Z" agent="Mozilla/5.0 (Windows NT 10.0; Win64; x64) AppleWebKit/537.36 (KHTML, like Gecko) Chrome/117.0.0.0 Safari/537.36" etag="LvlGUf05MveV6FaltaGG" version="21.7.1" type="device">
  <diagram name="Page-1" id="JYcaXIQvTIqk-zyjQ1KN">
    <mxGraphModel dx="2495" dy="1451" grid="1" gridSize="10" guides="1" tooltips="1" connect="1" arrows="1" fold="1" page="1" pageScale="1" pageWidth="850" pageHeight="1100" math="0" shadow="0">
      <root>
        <mxCell id="0" />
        <mxCell id="1" parent="0" />
        <mxCell id="gjPDRfo1dXahzrAHLrhi-457" value="" style="rounded=0;whiteSpace=wrap;html=1;fillColor=none;strokeColor=#82b366;fillStyle=hatch;strokeWidth=3;fontSize=15;" vertex="1" parent="1">
          <mxGeometry x="120" y="240" width="1410" height="1640" as="geometry" />
        </mxCell>
        <mxCell id="gjPDRfo1dXahzrAHLrhi-51" value="Outlet" style="shape=table;startSize=30;container=1;collapsible=1;childLayout=tableLayout;fixedRows=1;rowLines=0;fontStyle=1;align=center;resizeLast=1;html=1;fillColor=#dae8fc;strokeColor=#6c8ebf;strokeWidth=3;fontSize=15;" vertex="1" parent="1">
          <mxGeometry x="360" y="560" width="180" height="570" as="geometry" />
        </mxCell>
        <mxCell id="gjPDRfo1dXahzrAHLrhi-52" value="" style="shape=tableRow;horizontal=0;startSize=0;swimlaneHead=0;swimlaneBody=0;fillColor=#fff2cc;collapsible=0;dropTarget=0;points=[[0,0.5],[1,0.5]];portConstraint=eastwest;top=0;left=0;right=0;bottom=1;strokeColor=#d6b656;strokeWidth=3;fontSize=15;" vertex="1" parent="gjPDRfo1dXahzrAHLrhi-51">
          <mxGeometry y="30" width="180" height="30" as="geometry" />
        </mxCell>
        <mxCell id="gjPDRfo1dXahzrAHLrhi-53" value="PK" style="shape=partialRectangle;connectable=0;fillColor=none;top=0;left=0;bottom=0;right=0;fontStyle=1;overflow=hidden;whiteSpace=wrap;html=1;strokeWidth=3;fontSize=15;" vertex="1" parent="gjPDRfo1dXahzrAHLrhi-52">
          <mxGeometry width="30" height="30" as="geometry">
            <mxRectangle width="30" height="30" as="alternateBounds" />
          </mxGeometry>
        </mxCell>
        <mxCell id="gjPDRfo1dXahzrAHLrhi-54" value="id" style="shape=partialRectangle;connectable=0;fillColor=none;top=0;left=0;bottom=0;right=0;align=left;spacingLeft=6;fontStyle=5;overflow=hidden;whiteSpace=wrap;html=1;strokeWidth=3;fontSize=15;" vertex="1" parent="gjPDRfo1dXahzrAHLrhi-52">
          <mxGeometry x="30" width="150" height="30" as="geometry">
            <mxRectangle width="150" height="30" as="alternateBounds" />
          </mxGeometry>
        </mxCell>
        <mxCell id="gjPDRfo1dXahzrAHLrhi-70" value="" style="shape=tableRow;horizontal=0;startSize=0;swimlaneHead=0;swimlaneBody=0;fillColor=none;collapsible=0;dropTarget=0;points=[[0,0.5],[1,0.5]];portConstraint=eastwest;top=0;left=0;right=0;bottom=0;strokeWidth=3;fontSize=15;" vertex="1" parent="gjPDRfo1dXahzrAHLrhi-51">
          <mxGeometry y="60" width="180" height="30" as="geometry" />
        </mxCell>
        <mxCell id="gjPDRfo1dXahzrAHLrhi-71" value="FK" style="shape=partialRectangle;connectable=0;fillColor=none;top=0;left=0;bottom=0;right=0;fontStyle=0;overflow=hidden;whiteSpace=wrap;html=1;strokeWidth=3;fontSize=15;" vertex="1" parent="gjPDRfo1dXahzrAHLrhi-70">
          <mxGeometry width="30" height="30" as="geometry">
            <mxRectangle width="30" height="30" as="alternateBounds" />
          </mxGeometry>
        </mxCell>
        <mxCell id="gjPDRfo1dXahzrAHLrhi-72" value="Actor_Type" style="shape=partialRectangle;connectable=0;fillColor=none;top=0;left=0;bottom=0;right=0;align=left;spacingLeft=6;fontStyle=0;overflow=hidden;whiteSpace=wrap;html=1;strokeWidth=3;fontSize=15;" vertex="1" parent="gjPDRfo1dXahzrAHLrhi-70">
          <mxGeometry x="30" width="150" height="30" as="geometry">
            <mxRectangle width="150" height="30" as="alternateBounds" />
          </mxGeometry>
        </mxCell>
        <mxCell id="gjPDRfo1dXahzrAHLrhi-73" value="" style="shape=tableRow;horizontal=0;startSize=0;swimlaneHead=0;swimlaneBody=0;fillColor=none;collapsible=0;dropTarget=0;points=[[0,0.5],[1,0.5]];portConstraint=eastwest;top=0;left=0;right=0;bottom=0;strokeWidth=3;fontSize=15;" vertex="1" parent="gjPDRfo1dXahzrAHLrhi-51">
          <mxGeometry y="90" width="180" height="30" as="geometry" />
        </mxCell>
        <mxCell id="gjPDRfo1dXahzrAHLrhi-74" value="FK" style="shape=partialRectangle;connectable=0;fillColor=none;top=0;left=0;bottom=0;right=0;fontStyle=0;overflow=hidden;whiteSpace=wrap;html=1;strokeWidth=3;fontSize=15;" vertex="1" parent="gjPDRfo1dXahzrAHLrhi-73">
          <mxGeometry width="30" height="30" as="geometry">
            <mxRectangle width="30" height="30" as="alternateBounds" />
          </mxGeometry>
        </mxCell>
        <mxCell id="gjPDRfo1dXahzrAHLrhi-75" value="Outlet_Type" style="shape=partialRectangle;connectable=0;fillColor=none;top=0;left=0;bottom=0;right=0;align=left;spacingLeft=6;fontStyle=0;overflow=hidden;whiteSpace=wrap;html=1;strokeWidth=3;fontSize=15;" vertex="1" parent="gjPDRfo1dXahzrAHLrhi-73">
          <mxGeometry x="30" width="150" height="30" as="geometry">
            <mxRectangle width="150" height="30" as="alternateBounds" />
          </mxGeometry>
        </mxCell>
        <mxCell id="gjPDRfo1dXahzrAHLrhi-76" value="" style="shape=tableRow;horizontal=0;startSize=0;swimlaneHead=0;swimlaneBody=0;fillColor=none;collapsible=0;dropTarget=0;points=[[0,0.5],[1,0.5]];portConstraint=eastwest;top=0;left=0;right=0;bottom=0;strokeWidth=3;fontSize=15;" vertex="1" parent="gjPDRfo1dXahzrAHLrhi-51">
          <mxGeometry y="120" width="180" height="30" as="geometry" />
        </mxCell>
        <mxCell id="gjPDRfo1dXahzrAHLrhi-77" value="" style="shape=partialRectangle;connectable=0;fillColor=none;top=0;left=0;bottom=0;right=0;editable=1;overflow=hidden;strokeWidth=3;fontSize=15;" vertex="1" parent="gjPDRfo1dXahzrAHLrhi-76">
          <mxGeometry width="30" height="30" as="geometry">
            <mxRectangle width="30" height="30" as="alternateBounds" />
          </mxGeometry>
        </mxCell>
        <mxCell id="gjPDRfo1dXahzrAHLrhi-78" value="Firm_Name" style="shape=partialRectangle;connectable=0;fillColor=none;top=0;left=0;bottom=0;right=0;align=left;spacingLeft=6;overflow=hidden;strokeWidth=3;fontSize=15;" vertex="1" parent="gjPDRfo1dXahzrAHLrhi-76">
          <mxGeometry x="30" width="150" height="30" as="geometry">
            <mxRectangle width="150" height="30" as="alternateBounds" />
          </mxGeometry>
        </mxCell>
        <mxCell id="gjPDRfo1dXahzrAHLrhi-79" value="" style="shape=tableRow;horizontal=0;startSize=0;swimlaneHead=0;swimlaneBody=0;fillColor=none;collapsible=0;dropTarget=0;points=[[0,0.5],[1,0.5]];portConstraint=eastwest;top=0;left=0;right=0;bottom=0;strokeWidth=3;fontSize=15;" vertex="1" parent="gjPDRfo1dXahzrAHLrhi-51">
          <mxGeometry y="150" width="180" height="30" as="geometry" />
        </mxCell>
        <mxCell id="gjPDRfo1dXahzrAHLrhi-80" value="" style="shape=partialRectangle;connectable=0;fillColor=none;top=0;left=0;bottom=0;right=0;editable=1;overflow=hidden;strokeWidth=3;fontSize=15;" vertex="1" parent="gjPDRfo1dXahzrAHLrhi-79">
          <mxGeometry width="30" height="30" as="geometry">
            <mxRectangle width="30" height="30" as="alternateBounds" />
          </mxGeometry>
        </mxCell>
        <mxCell id="gjPDRfo1dXahzrAHLrhi-81" value="Firm_Contact_No" style="shape=partialRectangle;connectable=0;fillColor=none;top=0;left=0;bottom=0;right=0;align=left;spacingLeft=6;overflow=hidden;strokeWidth=3;fontSize=15;" vertex="1" parent="gjPDRfo1dXahzrAHLrhi-79">
          <mxGeometry x="30" width="150" height="30" as="geometry">
            <mxRectangle width="150" height="30" as="alternateBounds" />
          </mxGeometry>
        </mxCell>
        <mxCell id="gjPDRfo1dXahzrAHLrhi-88" value="" style="shape=tableRow;horizontal=0;startSize=0;swimlaneHead=0;swimlaneBody=0;fillColor=none;collapsible=0;dropTarget=0;points=[[0,0.5],[1,0.5]];portConstraint=eastwest;top=0;left=0;right=0;bottom=0;strokeWidth=3;fontSize=15;" vertex="1" parent="gjPDRfo1dXahzrAHLrhi-51">
          <mxGeometry y="180" width="180" height="30" as="geometry" />
        </mxCell>
        <mxCell id="gjPDRfo1dXahzrAHLrhi-89" value="" style="shape=partialRectangle;connectable=0;fillColor=none;top=0;left=0;bottom=0;right=0;editable=1;overflow=hidden;strokeWidth=3;fontSize=15;" vertex="1" parent="gjPDRfo1dXahzrAHLrhi-88">
          <mxGeometry width="30" height="30" as="geometry">
            <mxRectangle width="30" height="30" as="alternateBounds" />
          </mxGeometry>
        </mxCell>
        <mxCell id="gjPDRfo1dXahzrAHLrhi-90" value="Firm_GST_NO" style="shape=partialRectangle;connectable=0;fillColor=none;top=0;left=0;bottom=0;right=0;align=left;spacingLeft=6;overflow=hidden;strokeWidth=3;fontSize=15;" vertex="1" parent="gjPDRfo1dXahzrAHLrhi-88">
          <mxGeometry x="30" width="150" height="30" as="geometry">
            <mxRectangle width="150" height="30" as="alternateBounds" />
          </mxGeometry>
        </mxCell>
        <mxCell id="gjPDRfo1dXahzrAHLrhi-91" value="" style="shape=tableRow;horizontal=0;startSize=0;swimlaneHead=0;swimlaneBody=0;fillColor=none;collapsible=0;dropTarget=0;points=[[0,0.5],[1,0.5]];portConstraint=eastwest;top=0;left=0;right=0;bottom=0;strokeWidth=3;fontSize=15;" vertex="1" parent="gjPDRfo1dXahzrAHLrhi-51">
          <mxGeometry y="210" width="180" height="30" as="geometry" />
        </mxCell>
        <mxCell id="gjPDRfo1dXahzrAHLrhi-92" value="" style="shape=partialRectangle;connectable=0;fillColor=none;top=0;left=0;bottom=0;right=0;editable=1;overflow=hidden;strokeWidth=3;fontSize=15;" vertex="1" parent="gjPDRfo1dXahzrAHLrhi-91">
          <mxGeometry width="30" height="30" as="geometry">
            <mxRectangle width="30" height="30" as="alternateBounds" />
          </mxGeometry>
        </mxCell>
        <mxCell id="gjPDRfo1dXahzrAHLrhi-93" value="Firm_PAN" style="shape=partialRectangle;connectable=0;fillColor=none;top=0;left=0;bottom=0;right=0;align=left;spacingLeft=6;overflow=hidden;strokeWidth=3;fontSize=15;" vertex="1" parent="gjPDRfo1dXahzrAHLrhi-91">
          <mxGeometry x="30" width="150" height="30" as="geometry">
            <mxRectangle width="150" height="30" as="alternateBounds" />
          </mxGeometry>
        </mxCell>
        <mxCell id="gjPDRfo1dXahzrAHLrhi-94" value="" style="shape=tableRow;horizontal=0;startSize=0;swimlaneHead=0;swimlaneBody=0;fillColor=none;collapsible=0;dropTarget=0;points=[[0,0.5],[1,0.5]];portConstraint=eastwest;top=0;left=0;right=0;bottom=0;strokeWidth=3;fontSize=15;" vertex="1" parent="gjPDRfo1dXahzrAHLrhi-51">
          <mxGeometry y="240" width="180" height="30" as="geometry" />
        </mxCell>
        <mxCell id="gjPDRfo1dXahzrAHLrhi-95" value="FK" style="shape=partialRectangle;connectable=0;fillColor=none;top=0;left=0;bottom=0;right=0;fontStyle=0;overflow=hidden;whiteSpace=wrap;html=1;strokeWidth=3;fontSize=15;" vertex="1" parent="gjPDRfo1dXahzrAHLrhi-94">
          <mxGeometry width="30" height="30" as="geometry">
            <mxRectangle width="30" height="30" as="alternateBounds" />
          </mxGeometry>
        </mxCell>
        <mxCell id="gjPDRfo1dXahzrAHLrhi-96" value="Firm_Add" style="shape=partialRectangle;connectable=0;fillColor=none;top=0;left=0;bottom=0;right=0;align=left;spacingLeft=6;fontStyle=0;overflow=hidden;whiteSpace=wrap;html=1;strokeWidth=3;fontSize=15;" vertex="1" parent="gjPDRfo1dXahzrAHLrhi-94">
          <mxGeometry x="30" width="150" height="30" as="geometry">
            <mxRectangle width="150" height="30" as="alternateBounds" />
          </mxGeometry>
        </mxCell>
        <mxCell id="gjPDRfo1dXahzrAHLrhi-97" value="" style="shape=tableRow;horizontal=0;startSize=0;swimlaneHead=0;swimlaneBody=0;fillColor=none;collapsible=0;dropTarget=0;points=[[0,0.5],[1,0.5]];portConstraint=eastwest;top=0;left=0;right=0;bottom=0;strokeWidth=3;fontSize=15;" vertex="1" parent="gjPDRfo1dXahzrAHLrhi-51">
          <mxGeometry y="270" width="180" height="30" as="geometry" />
        </mxCell>
        <mxCell id="gjPDRfo1dXahzrAHLrhi-98" value="FK" style="shape=partialRectangle;connectable=0;fillColor=none;top=0;left=0;bottom=0;right=0;fontStyle=0;overflow=hidden;whiteSpace=wrap;html=1;strokeWidth=3;fontSize=15;" vertex="1" parent="gjPDRfo1dXahzrAHLrhi-97">
          <mxGeometry width="30" height="30" as="geometry">
            <mxRectangle width="30" height="30" as="alternateBounds" />
          </mxGeometry>
        </mxCell>
        <mxCell id="gjPDRfo1dXahzrAHLrhi-99" value="Firm_Bank" style="shape=partialRectangle;connectable=0;fillColor=none;top=0;left=0;bottom=0;right=0;align=left;spacingLeft=6;fontStyle=0;overflow=hidden;whiteSpace=wrap;html=1;strokeWidth=3;fontSize=15;" vertex="1" parent="gjPDRfo1dXahzrAHLrhi-97">
          <mxGeometry x="30" width="150" height="30" as="geometry">
            <mxRectangle width="150" height="30" as="alternateBounds" />
          </mxGeometry>
        </mxCell>
        <mxCell id="gjPDRfo1dXahzrAHLrhi-100" value="" style="shape=tableRow;horizontal=0;startSize=0;swimlaneHead=0;swimlaneBody=0;fillColor=none;collapsible=0;dropTarget=0;points=[[0,0.5],[1,0.5]];portConstraint=eastwest;top=0;left=0;right=0;bottom=0;strokeWidth=3;fontSize=15;" vertex="1" parent="gjPDRfo1dXahzrAHLrhi-51">
          <mxGeometry y="300" width="180" height="30" as="geometry" />
        </mxCell>
        <mxCell id="gjPDRfo1dXahzrAHLrhi-101" value="" style="shape=partialRectangle;connectable=0;fillColor=none;top=0;left=0;bottom=0;right=0;editable=1;overflow=hidden;strokeWidth=3;fontSize=15;" vertex="1" parent="gjPDRfo1dXahzrAHLrhi-100">
          <mxGeometry width="30" height="30" as="geometry">
            <mxRectangle width="30" height="30" as="alternateBounds" />
          </mxGeometry>
        </mxCell>
        <mxCell id="gjPDRfo1dXahzrAHLrhi-102" value="Owner_F_Name" style="shape=partialRectangle;connectable=0;fillColor=none;top=0;left=0;bottom=0;right=0;align=left;spacingLeft=6;overflow=hidden;strokeWidth=3;fontSize=15;" vertex="1" parent="gjPDRfo1dXahzrAHLrhi-100">
          <mxGeometry x="30" width="150" height="30" as="geometry">
            <mxRectangle width="150" height="30" as="alternateBounds" />
          </mxGeometry>
        </mxCell>
        <mxCell id="gjPDRfo1dXahzrAHLrhi-103" value="" style="shape=tableRow;horizontal=0;startSize=0;swimlaneHead=0;swimlaneBody=0;fillColor=none;collapsible=0;dropTarget=0;points=[[0,0.5],[1,0.5]];portConstraint=eastwest;top=0;left=0;right=0;bottom=0;strokeWidth=3;fontSize=15;" vertex="1" parent="gjPDRfo1dXahzrAHLrhi-51">
          <mxGeometry y="330" width="180" height="30" as="geometry" />
        </mxCell>
        <mxCell id="gjPDRfo1dXahzrAHLrhi-104" value="" style="shape=partialRectangle;connectable=0;fillColor=none;top=0;left=0;bottom=0;right=0;editable=1;overflow=hidden;strokeWidth=3;fontSize=15;" vertex="1" parent="gjPDRfo1dXahzrAHLrhi-103">
          <mxGeometry width="30" height="30" as="geometry">
            <mxRectangle width="30" height="30" as="alternateBounds" />
          </mxGeometry>
        </mxCell>
        <mxCell id="gjPDRfo1dXahzrAHLrhi-105" value="Owner_L_Name" style="shape=partialRectangle;connectable=0;fillColor=none;top=0;left=0;bottom=0;right=0;align=left;spacingLeft=6;overflow=hidden;strokeWidth=3;fontSize=15;" vertex="1" parent="gjPDRfo1dXahzrAHLrhi-103">
          <mxGeometry x="30" width="150" height="30" as="geometry">
            <mxRectangle width="150" height="30" as="alternateBounds" />
          </mxGeometry>
        </mxCell>
        <mxCell id="gjPDRfo1dXahzrAHLrhi-106" value="" style="shape=tableRow;horizontal=0;startSize=0;swimlaneHead=0;swimlaneBody=0;fillColor=none;collapsible=0;dropTarget=0;points=[[0,0.5],[1,0.5]];portConstraint=eastwest;top=0;left=0;right=0;bottom=0;strokeWidth=3;fontSize=15;" vertex="1" parent="gjPDRfo1dXahzrAHLrhi-51">
          <mxGeometry y="360" width="180" height="30" as="geometry" />
        </mxCell>
        <mxCell id="gjPDRfo1dXahzrAHLrhi-107" value="" style="shape=partialRectangle;connectable=0;fillColor=none;top=0;left=0;bottom=0;right=0;editable=1;overflow=hidden;strokeWidth=3;fontSize=15;" vertex="1" parent="gjPDRfo1dXahzrAHLrhi-106">
          <mxGeometry width="30" height="30" as="geometry">
            <mxRectangle width="30" height="30" as="alternateBounds" />
          </mxGeometry>
        </mxCell>
        <mxCell id="gjPDRfo1dXahzrAHLrhi-108" value="Owner_Contact_No" style="shape=partialRectangle;connectable=0;fillColor=none;top=0;left=0;bottom=0;right=0;align=left;spacingLeft=6;overflow=hidden;strokeWidth=3;fontSize=15;" vertex="1" parent="gjPDRfo1dXahzrAHLrhi-106">
          <mxGeometry x="30" width="150" height="30" as="geometry">
            <mxRectangle width="150" height="30" as="alternateBounds" />
          </mxGeometry>
        </mxCell>
        <mxCell id="gjPDRfo1dXahzrAHLrhi-109" value="" style="shape=tableRow;horizontal=0;startSize=0;swimlaneHead=0;swimlaneBody=0;fillColor=none;collapsible=0;dropTarget=0;points=[[0,0.5],[1,0.5]];portConstraint=eastwest;top=0;left=0;right=0;bottom=0;strokeWidth=3;fontSize=15;" vertex="1" parent="gjPDRfo1dXahzrAHLrhi-51">
          <mxGeometry y="390" width="180" height="30" as="geometry" />
        </mxCell>
        <mxCell id="gjPDRfo1dXahzrAHLrhi-110" value="" style="shape=partialRectangle;connectable=0;fillColor=none;top=0;left=0;bottom=0;right=0;editable=1;overflow=hidden;strokeWidth=3;fontSize=15;" vertex="1" parent="gjPDRfo1dXahzrAHLrhi-109">
          <mxGeometry width="30" height="30" as="geometry">
            <mxRectangle width="30" height="30" as="alternateBounds" />
          </mxGeometry>
        </mxCell>
        <mxCell id="gjPDRfo1dXahzrAHLrhi-111" value="Owner_PAN" style="shape=partialRectangle;connectable=0;fillColor=none;top=0;left=0;bottom=0;right=0;align=left;spacingLeft=6;overflow=hidden;strokeWidth=3;fontSize=15;" vertex="1" parent="gjPDRfo1dXahzrAHLrhi-109">
          <mxGeometry x="30" width="150" height="30" as="geometry">
            <mxRectangle width="150" height="30" as="alternateBounds" />
          </mxGeometry>
        </mxCell>
        <mxCell id="gjPDRfo1dXahzrAHLrhi-112" value="" style="shape=tableRow;horizontal=0;startSize=0;swimlaneHead=0;swimlaneBody=0;fillColor=none;collapsible=0;dropTarget=0;points=[[0,0.5],[1,0.5]];portConstraint=eastwest;top=0;left=0;right=0;bottom=0;strokeWidth=3;fontSize=15;" vertex="1" parent="gjPDRfo1dXahzrAHLrhi-51">
          <mxGeometry y="420" width="180" height="30" as="geometry" />
        </mxCell>
        <mxCell id="gjPDRfo1dXahzrAHLrhi-113" value="FK" style="shape=partialRectangle;connectable=0;fillColor=none;top=0;left=0;bottom=0;right=0;fontStyle=0;overflow=hidden;whiteSpace=wrap;html=1;strokeWidth=3;fontSize=15;" vertex="1" parent="gjPDRfo1dXahzrAHLrhi-112">
          <mxGeometry width="30" height="30" as="geometry">
            <mxRectangle width="30" height="30" as="alternateBounds" />
          </mxGeometry>
        </mxCell>
        <mxCell id="gjPDRfo1dXahzrAHLrhi-114" value="Owner_KYC" style="shape=partialRectangle;connectable=0;fillColor=none;top=0;left=0;bottom=0;right=0;align=left;spacingLeft=6;fontStyle=0;overflow=hidden;whiteSpace=wrap;html=1;strokeWidth=3;fontSize=15;" vertex="1" parent="gjPDRfo1dXahzrAHLrhi-112">
          <mxGeometry x="30" width="150" height="30" as="geometry">
            <mxRectangle width="150" height="30" as="alternateBounds" />
          </mxGeometry>
        </mxCell>
        <mxCell id="gjPDRfo1dXahzrAHLrhi-115" value="" style="shape=tableRow;horizontal=0;startSize=0;swimlaneHead=0;swimlaneBody=0;fillColor=none;collapsible=0;dropTarget=0;points=[[0,0.5],[1,0.5]];portConstraint=eastwest;top=0;left=0;right=0;bottom=0;strokeWidth=3;fontSize=15;" vertex="1" parent="gjPDRfo1dXahzrAHLrhi-51">
          <mxGeometry y="450" width="180" height="30" as="geometry" />
        </mxCell>
        <mxCell id="gjPDRfo1dXahzrAHLrhi-116" value="FK" style="shape=partialRectangle;connectable=0;fillColor=none;top=0;left=0;bottom=0;right=0;fontStyle=0;overflow=hidden;whiteSpace=wrap;html=1;strokeWidth=3;fontSize=15;" vertex="1" parent="gjPDRfo1dXahzrAHLrhi-115">
          <mxGeometry width="30" height="30" as="geometry">
            <mxRectangle width="30" height="30" as="alternateBounds" />
          </mxGeometry>
        </mxCell>
        <mxCell id="gjPDRfo1dXahzrAHLrhi-117" value="Owner_Add" style="shape=partialRectangle;connectable=0;fillColor=none;top=0;left=0;bottom=0;right=0;align=left;spacingLeft=6;fontStyle=0;overflow=hidden;whiteSpace=wrap;html=1;strokeWidth=3;fontSize=15;" vertex="1" parent="gjPDRfo1dXahzrAHLrhi-115">
          <mxGeometry x="30" width="150" height="30" as="geometry">
            <mxRectangle width="150" height="30" as="alternateBounds" />
          </mxGeometry>
        </mxCell>
        <mxCell id="gjPDRfo1dXahzrAHLrhi-118" value="" style="shape=tableRow;horizontal=0;startSize=0;swimlaneHead=0;swimlaneBody=0;fillColor=none;collapsible=0;dropTarget=0;points=[[0,0.5],[1,0.5]];portConstraint=eastwest;top=0;left=0;right=0;bottom=0;strokeWidth=3;fontSize=15;" vertex="1" parent="gjPDRfo1dXahzrAHLrhi-51">
          <mxGeometry y="480" width="180" height="30" as="geometry" />
        </mxCell>
        <mxCell id="gjPDRfo1dXahzrAHLrhi-119" value="" style="shape=partialRectangle;connectable=0;fillColor=none;top=0;left=0;bottom=0;right=0;editable=1;overflow=hidden;strokeWidth=3;fontSize=15;" vertex="1" parent="gjPDRfo1dXahzrAHLrhi-118">
          <mxGeometry width="30" height="30" as="geometry">
            <mxRectangle width="30" height="30" as="alternateBounds" />
          </mxGeometry>
        </mxCell>
        <mxCell id="gjPDRfo1dXahzrAHLrhi-120" value="Email" style="shape=partialRectangle;connectable=0;fillColor=none;top=0;left=0;bottom=0;right=0;align=left;spacingLeft=6;overflow=hidden;strokeWidth=3;fontSize=15;" vertex="1" parent="gjPDRfo1dXahzrAHLrhi-118">
          <mxGeometry x="30" width="150" height="30" as="geometry">
            <mxRectangle width="150" height="30" as="alternateBounds" />
          </mxGeometry>
        </mxCell>
        <mxCell id="gjPDRfo1dXahzrAHLrhi-121" value="" style="shape=tableRow;horizontal=0;startSize=0;swimlaneHead=0;swimlaneBody=0;fillColor=none;collapsible=0;dropTarget=0;points=[[0,0.5],[1,0.5]];portConstraint=eastwest;top=0;left=0;right=0;bottom=0;strokeWidth=3;fontSize=15;" vertex="1" parent="gjPDRfo1dXahzrAHLrhi-51">
          <mxGeometry y="510" width="180" height="30" as="geometry" />
        </mxCell>
        <mxCell id="gjPDRfo1dXahzrAHLrhi-122" value="" style="shape=partialRectangle;connectable=0;fillColor=none;top=0;left=0;bottom=0;right=0;editable=1;overflow=hidden;strokeWidth=3;fontSize=15;" vertex="1" parent="gjPDRfo1dXahzrAHLrhi-121">
          <mxGeometry width="30" height="30" as="geometry">
            <mxRectangle width="30" height="30" as="alternateBounds" />
          </mxGeometry>
        </mxCell>
        <mxCell id="gjPDRfo1dXahzrAHLrhi-123" value="Password" style="shape=partialRectangle;connectable=0;fillColor=none;top=0;left=0;bottom=0;right=0;align=left;spacingLeft=6;overflow=hidden;strokeWidth=3;fontSize=15;" vertex="1" parent="gjPDRfo1dXahzrAHLrhi-121">
          <mxGeometry x="30" width="150" height="30" as="geometry">
            <mxRectangle width="150" height="30" as="alternateBounds" />
          </mxGeometry>
        </mxCell>
        <mxCell id="gjPDRfo1dXahzrAHLrhi-124" value="" style="shape=tableRow;horizontal=0;startSize=0;swimlaneHead=0;swimlaneBody=0;fillColor=none;collapsible=0;dropTarget=0;points=[[0,0.5],[1,0.5]];portConstraint=eastwest;top=0;left=0;right=0;bottom=0;strokeWidth=3;fontSize=15;" vertex="1" parent="gjPDRfo1dXahzrAHLrhi-51">
          <mxGeometry y="540" width="180" height="30" as="geometry" />
        </mxCell>
        <mxCell id="gjPDRfo1dXahzrAHLrhi-125" value="" style="shape=partialRectangle;connectable=0;fillColor=none;top=0;left=0;bottom=0;right=0;editable=1;overflow=hidden;strokeWidth=3;fontSize=15;" vertex="1" parent="gjPDRfo1dXahzrAHLrhi-124">
          <mxGeometry width="30" height="30" as="geometry">
            <mxRectangle width="30" height="30" as="alternateBounds" />
          </mxGeometry>
        </mxCell>
        <mxCell id="gjPDRfo1dXahzrAHLrhi-126" value="Status" style="shape=partialRectangle;connectable=0;fillColor=none;top=0;left=0;bottom=0;right=0;align=left;spacingLeft=6;overflow=hidden;strokeWidth=3;fontSize=15;" vertex="1" parent="gjPDRfo1dXahzrAHLrhi-124">
          <mxGeometry x="30" width="150" height="30" as="geometry">
            <mxRectangle width="150" height="30" as="alternateBounds" />
          </mxGeometry>
        </mxCell>
        <mxCell id="gjPDRfo1dXahzrAHLrhi-82" value="" style="shape=tableRow;horizontal=0;startSize=0;swimlaneHead=0;swimlaneBody=0;fillColor=none;collapsible=0;dropTarget=0;points=[[0,0.5],[1,0.5]];portConstraint=eastwest;top=0;left=0;right=0;bottom=0;strokeWidth=3;fontSize=15;" vertex="1" parent="1">
          <mxGeometry x="360" y="710" width="180" height="30" as="geometry" />
        </mxCell>
        <mxCell id="gjPDRfo1dXahzrAHLrhi-83" value="" style="shape=partialRectangle;connectable=0;fillColor=none;top=0;left=0;bottom=0;right=0;editable=1;overflow=hidden;strokeWidth=3;fontSize=15;" vertex="1" parent="gjPDRfo1dXahzrAHLrhi-82">
          <mxGeometry width="30" height="30" as="geometry">
            <mxRectangle width="30" height="30" as="alternateBounds" />
          </mxGeometry>
        </mxCell>
        <mxCell id="gjPDRfo1dXahzrAHLrhi-127" value="TD" style="shape=table;startSize=30;container=1;collapsible=1;childLayout=tableLayout;fixedRows=1;rowLines=0;fontStyle=1;align=center;resizeLast=1;html=1;fillColor=#dae8fc;strokeColor=#6c8ebf;strokeWidth=3;fontSize=15;" vertex="1" parent="1">
          <mxGeometry x="580" y="560" width="180" height="390" as="geometry" />
        </mxCell>
        <mxCell id="gjPDRfo1dXahzrAHLrhi-128" value="" style="shape=tableRow;horizontal=0;startSize=0;swimlaneHead=0;swimlaneBody=0;fillColor=#fff2cc;collapsible=0;dropTarget=0;points=[[0,0.5],[1,0.5]];portConstraint=eastwest;top=0;left=0;right=0;bottom=1;strokeColor=#d6b656;strokeWidth=3;fontSize=15;" vertex="1" parent="gjPDRfo1dXahzrAHLrhi-127">
          <mxGeometry y="30" width="180" height="30" as="geometry" />
        </mxCell>
        <mxCell id="gjPDRfo1dXahzrAHLrhi-129" value="PK" style="shape=partialRectangle;connectable=0;fillColor=none;top=0;left=0;bottom=0;right=0;fontStyle=1;overflow=hidden;whiteSpace=wrap;html=1;strokeWidth=3;fontSize=15;" vertex="1" parent="gjPDRfo1dXahzrAHLrhi-128">
          <mxGeometry width="30" height="30" as="geometry">
            <mxRectangle width="30" height="30" as="alternateBounds" />
          </mxGeometry>
        </mxCell>
        <mxCell id="gjPDRfo1dXahzrAHLrhi-130" value="id" style="shape=partialRectangle;connectable=0;fillColor=none;top=0;left=0;bottom=0;right=0;align=left;spacingLeft=6;fontStyle=5;overflow=hidden;whiteSpace=wrap;html=1;strokeWidth=3;fontSize=15;" vertex="1" parent="gjPDRfo1dXahzrAHLrhi-128">
          <mxGeometry x="30" width="150" height="30" as="geometry">
            <mxRectangle width="150" height="30" as="alternateBounds" />
          </mxGeometry>
        </mxCell>
        <mxCell id="gjPDRfo1dXahzrAHLrhi-131" value="" style="shape=tableRow;horizontal=0;startSize=0;swimlaneHead=0;swimlaneBody=0;fillColor=none;collapsible=0;dropTarget=0;points=[[0,0.5],[1,0.5]];portConstraint=eastwest;top=0;left=0;right=0;bottom=0;strokeWidth=3;fontSize=15;" vertex="1" parent="gjPDRfo1dXahzrAHLrhi-127">
          <mxGeometry y="60" width="180" height="30" as="geometry" />
        </mxCell>
        <mxCell id="gjPDRfo1dXahzrAHLrhi-132" value="FK" style="shape=partialRectangle;connectable=0;fillColor=none;top=0;left=0;bottom=0;right=0;fontStyle=0;overflow=hidden;whiteSpace=wrap;html=1;strokeWidth=3;fontSize=15;" vertex="1" parent="gjPDRfo1dXahzrAHLrhi-131">
          <mxGeometry width="30" height="30" as="geometry">
            <mxRectangle width="30" height="30" as="alternateBounds" />
          </mxGeometry>
        </mxCell>
        <mxCell id="gjPDRfo1dXahzrAHLrhi-133" value="Actor_Type" style="shape=partialRectangle;connectable=0;fillColor=none;top=0;left=0;bottom=0;right=0;align=left;spacingLeft=6;fontStyle=0;overflow=hidden;whiteSpace=wrap;html=1;strokeWidth=3;fontSize=15;" vertex="1" parent="gjPDRfo1dXahzrAHLrhi-131">
          <mxGeometry x="30" width="150" height="30" as="geometry">
            <mxRectangle width="150" height="30" as="alternateBounds" />
          </mxGeometry>
        </mxCell>
        <mxCell id="gjPDRfo1dXahzrAHLrhi-155" value="" style="shape=tableRow;horizontal=0;startSize=0;swimlaneHead=0;swimlaneBody=0;fillColor=none;collapsible=0;dropTarget=0;points=[[0,0.5],[1,0.5]];portConstraint=eastwest;top=0;left=0;right=0;bottom=0;strokeWidth=3;fontSize=15;" vertex="1" parent="gjPDRfo1dXahzrAHLrhi-127">
          <mxGeometry y="90" width="180" height="30" as="geometry" />
        </mxCell>
        <mxCell id="gjPDRfo1dXahzrAHLrhi-156" value="" style="shape=partialRectangle;connectable=0;fillColor=none;top=0;left=0;bottom=0;right=0;editable=1;overflow=hidden;strokeWidth=3;fontSize=15;" vertex="1" parent="gjPDRfo1dXahzrAHLrhi-155">
          <mxGeometry width="30" height="30" as="geometry">
            <mxRectangle width="30" height="30" as="alternateBounds" />
          </mxGeometry>
        </mxCell>
        <mxCell id="gjPDRfo1dXahzrAHLrhi-157" value="TD_F_Name" style="shape=partialRectangle;connectable=0;fillColor=none;top=0;left=0;bottom=0;right=0;align=left;spacingLeft=6;overflow=hidden;strokeWidth=3;fontSize=15;" vertex="1" parent="gjPDRfo1dXahzrAHLrhi-155">
          <mxGeometry x="30" width="150" height="30" as="geometry">
            <mxRectangle width="150" height="30" as="alternateBounds" />
          </mxGeometry>
        </mxCell>
        <mxCell id="gjPDRfo1dXahzrAHLrhi-158" value="" style="shape=tableRow;horizontal=0;startSize=0;swimlaneHead=0;swimlaneBody=0;fillColor=none;collapsible=0;dropTarget=0;points=[[0,0.5],[1,0.5]];portConstraint=eastwest;top=0;left=0;right=0;bottom=0;strokeWidth=3;fontSize=15;" vertex="1" parent="gjPDRfo1dXahzrAHLrhi-127">
          <mxGeometry y="120" width="180" height="30" as="geometry" />
        </mxCell>
        <mxCell id="gjPDRfo1dXahzrAHLrhi-159" value="" style="shape=partialRectangle;connectable=0;fillColor=none;top=0;left=0;bottom=0;right=0;editable=1;overflow=hidden;strokeWidth=3;fontSize=15;" vertex="1" parent="gjPDRfo1dXahzrAHLrhi-158">
          <mxGeometry width="30" height="30" as="geometry">
            <mxRectangle width="30" height="30" as="alternateBounds" />
          </mxGeometry>
        </mxCell>
        <mxCell id="gjPDRfo1dXahzrAHLrhi-160" value="TD_L_Name" style="shape=partialRectangle;connectable=0;fillColor=none;top=0;left=0;bottom=0;right=0;align=left;spacingLeft=6;overflow=hidden;strokeWidth=3;fontSize=15;" vertex="1" parent="gjPDRfo1dXahzrAHLrhi-158">
          <mxGeometry x="30" width="150" height="30" as="geometry">
            <mxRectangle width="150" height="30" as="alternateBounds" />
          </mxGeometry>
        </mxCell>
        <mxCell id="gjPDRfo1dXahzrAHLrhi-161" value="" style="shape=tableRow;horizontal=0;startSize=0;swimlaneHead=0;swimlaneBody=0;fillColor=none;collapsible=0;dropTarget=0;points=[[0,0.5],[1,0.5]];portConstraint=eastwest;top=0;left=0;right=0;bottom=0;strokeWidth=3;fontSize=15;" vertex="1" parent="gjPDRfo1dXahzrAHLrhi-127">
          <mxGeometry y="150" width="180" height="30" as="geometry" />
        </mxCell>
        <mxCell id="gjPDRfo1dXahzrAHLrhi-162" value="" style="shape=partialRectangle;connectable=0;fillColor=none;top=0;left=0;bottom=0;right=0;editable=1;overflow=hidden;strokeWidth=3;fontSize=15;" vertex="1" parent="gjPDRfo1dXahzrAHLrhi-161">
          <mxGeometry width="30" height="30" as="geometry">
            <mxRectangle width="30" height="30" as="alternateBounds" />
          </mxGeometry>
        </mxCell>
        <mxCell id="gjPDRfo1dXahzrAHLrhi-163" value="TD_Contact_No" style="shape=partialRectangle;connectable=0;fillColor=none;top=0;left=0;bottom=0;right=0;align=left;spacingLeft=6;overflow=hidden;strokeWidth=3;fontSize=15;" vertex="1" parent="gjPDRfo1dXahzrAHLrhi-161">
          <mxGeometry x="30" width="150" height="30" as="geometry">
            <mxRectangle width="150" height="30" as="alternateBounds" />
          </mxGeometry>
        </mxCell>
        <mxCell id="gjPDRfo1dXahzrAHLrhi-164" value="" style="shape=tableRow;horizontal=0;startSize=0;swimlaneHead=0;swimlaneBody=0;fillColor=none;collapsible=0;dropTarget=0;points=[[0,0.5],[1,0.5]];portConstraint=eastwest;top=0;left=0;right=0;bottom=0;strokeWidth=3;fontSize=15;" vertex="1" parent="gjPDRfo1dXahzrAHLrhi-127">
          <mxGeometry y="180" width="180" height="30" as="geometry" />
        </mxCell>
        <mxCell id="gjPDRfo1dXahzrAHLrhi-165" value="" style="shape=partialRectangle;connectable=0;fillColor=none;top=0;left=0;bottom=0;right=0;editable=1;overflow=hidden;strokeWidth=3;fontSize=15;" vertex="1" parent="gjPDRfo1dXahzrAHLrhi-164">
          <mxGeometry width="30" height="30" as="geometry">
            <mxRectangle width="30" height="30" as="alternateBounds" />
          </mxGeometry>
        </mxCell>
        <mxCell id="gjPDRfo1dXahzrAHLrhi-166" value="TD_PAN" style="shape=partialRectangle;connectable=0;fillColor=none;top=0;left=0;bottom=0;right=0;align=left;spacingLeft=6;overflow=hidden;strokeWidth=3;fontSize=15;" vertex="1" parent="gjPDRfo1dXahzrAHLrhi-164">
          <mxGeometry x="30" width="150" height="30" as="geometry">
            <mxRectangle width="150" height="30" as="alternateBounds" />
          </mxGeometry>
        </mxCell>
        <mxCell id="gjPDRfo1dXahzrAHLrhi-167" value="" style="shape=tableRow;horizontal=0;startSize=0;swimlaneHead=0;swimlaneBody=0;fillColor=none;collapsible=0;dropTarget=0;points=[[0,0.5],[1,0.5]];portConstraint=eastwest;top=0;left=0;right=0;bottom=0;strokeWidth=3;fontSize=15;" vertex="1" parent="gjPDRfo1dXahzrAHLrhi-127">
          <mxGeometry y="210" width="180" height="30" as="geometry" />
        </mxCell>
        <mxCell id="gjPDRfo1dXahzrAHLrhi-168" value="FK" style="shape=partialRectangle;connectable=0;fillColor=none;top=0;left=0;bottom=0;right=0;fontStyle=0;overflow=hidden;whiteSpace=wrap;html=1;strokeWidth=3;fontSize=15;" vertex="1" parent="gjPDRfo1dXahzrAHLrhi-167">
          <mxGeometry width="30" height="30" as="geometry">
            <mxRectangle width="30" height="30" as="alternateBounds" />
          </mxGeometry>
        </mxCell>
        <mxCell id="gjPDRfo1dXahzrAHLrhi-169" value="TD_KYC" style="shape=partialRectangle;connectable=0;fillColor=none;top=0;left=0;bottom=0;right=0;align=left;spacingLeft=6;fontStyle=0;overflow=hidden;whiteSpace=wrap;html=1;strokeWidth=3;fontSize=15;" vertex="1" parent="gjPDRfo1dXahzrAHLrhi-167">
          <mxGeometry x="30" width="150" height="30" as="geometry">
            <mxRectangle width="150" height="30" as="alternateBounds" />
          </mxGeometry>
        </mxCell>
        <mxCell id="gjPDRfo1dXahzrAHLrhi-170" value="" style="shape=tableRow;horizontal=0;startSize=0;swimlaneHead=0;swimlaneBody=0;fillColor=none;collapsible=0;dropTarget=0;points=[[0,0.5],[1,0.5]];portConstraint=eastwest;top=0;left=0;right=0;bottom=0;strokeWidth=3;fontSize=15;" vertex="1" parent="gjPDRfo1dXahzrAHLrhi-127">
          <mxGeometry y="240" width="180" height="30" as="geometry" />
        </mxCell>
        <mxCell id="gjPDRfo1dXahzrAHLrhi-171" value="FK" style="shape=partialRectangle;connectable=0;fillColor=none;top=0;left=0;bottom=0;right=0;fontStyle=0;overflow=hidden;whiteSpace=wrap;html=1;strokeWidth=3;fontSize=15;" vertex="1" parent="gjPDRfo1dXahzrAHLrhi-170">
          <mxGeometry width="30" height="30" as="geometry">
            <mxRectangle width="30" height="30" as="alternateBounds" />
          </mxGeometry>
        </mxCell>
        <mxCell id="gjPDRfo1dXahzrAHLrhi-172" value="TD_Add" style="shape=partialRectangle;connectable=0;fillColor=none;top=0;left=0;bottom=0;right=0;align=left;spacingLeft=6;fontStyle=0;overflow=hidden;whiteSpace=wrap;html=1;strokeWidth=3;fontSize=15;" vertex="1" parent="gjPDRfo1dXahzrAHLrhi-170">
          <mxGeometry x="30" width="150" height="30" as="geometry">
            <mxRectangle width="150" height="30" as="alternateBounds" />
          </mxGeometry>
        </mxCell>
        <mxCell id="gjPDRfo1dXahzrAHLrhi-182" value="" style="shape=tableRow;horizontal=0;startSize=0;swimlaneHead=0;swimlaneBody=0;fillColor=none;collapsible=0;dropTarget=0;points=[[0,0.5],[1,0.5]];portConstraint=eastwest;top=0;left=0;right=0;bottom=0;strokeWidth=3;fontSize=15;" vertex="1" parent="gjPDRfo1dXahzrAHLrhi-127">
          <mxGeometry y="270" width="180" height="30" as="geometry" />
        </mxCell>
        <mxCell id="gjPDRfo1dXahzrAHLrhi-183" value="FK" style="shape=partialRectangle;connectable=0;fillColor=none;top=0;left=0;bottom=0;right=0;fontStyle=0;overflow=hidden;whiteSpace=wrap;html=1;strokeWidth=3;fontSize=15;" vertex="1" parent="gjPDRfo1dXahzrAHLrhi-182">
          <mxGeometry width="30" height="30" as="geometry">
            <mxRectangle width="30" height="30" as="alternateBounds" />
          </mxGeometry>
        </mxCell>
        <mxCell id="gjPDRfo1dXahzrAHLrhi-184" value="TD_Bank" style="shape=partialRectangle;connectable=0;fillColor=none;top=0;left=0;bottom=0;right=0;align=left;spacingLeft=6;fontStyle=0;overflow=hidden;whiteSpace=wrap;html=1;strokeWidth=3;fontSize=15;" vertex="1" parent="gjPDRfo1dXahzrAHLrhi-182">
          <mxGeometry x="30" width="150" height="30" as="geometry">
            <mxRectangle width="150" height="30" as="alternateBounds" />
          </mxGeometry>
        </mxCell>
        <mxCell id="gjPDRfo1dXahzrAHLrhi-173" value="" style="shape=tableRow;horizontal=0;startSize=0;swimlaneHead=0;swimlaneBody=0;fillColor=none;collapsible=0;dropTarget=0;points=[[0,0.5],[1,0.5]];portConstraint=eastwest;top=0;left=0;right=0;bottom=0;strokeWidth=3;fontSize=15;" vertex="1" parent="gjPDRfo1dXahzrAHLrhi-127">
          <mxGeometry y="300" width="180" height="30" as="geometry" />
        </mxCell>
        <mxCell id="gjPDRfo1dXahzrAHLrhi-174" value="" style="shape=partialRectangle;connectable=0;fillColor=none;top=0;left=0;bottom=0;right=0;editable=1;overflow=hidden;strokeWidth=3;fontSize=15;" vertex="1" parent="gjPDRfo1dXahzrAHLrhi-173">
          <mxGeometry width="30" height="30" as="geometry">
            <mxRectangle width="30" height="30" as="alternateBounds" />
          </mxGeometry>
        </mxCell>
        <mxCell id="gjPDRfo1dXahzrAHLrhi-175" value="Email" style="shape=partialRectangle;connectable=0;fillColor=none;top=0;left=0;bottom=0;right=0;align=left;spacingLeft=6;overflow=hidden;strokeWidth=3;fontSize=15;" vertex="1" parent="gjPDRfo1dXahzrAHLrhi-173">
          <mxGeometry x="30" width="150" height="30" as="geometry">
            <mxRectangle width="150" height="30" as="alternateBounds" />
          </mxGeometry>
        </mxCell>
        <mxCell id="gjPDRfo1dXahzrAHLrhi-176" value="" style="shape=tableRow;horizontal=0;startSize=0;swimlaneHead=0;swimlaneBody=0;fillColor=none;collapsible=0;dropTarget=0;points=[[0,0.5],[1,0.5]];portConstraint=eastwest;top=0;left=0;right=0;bottom=0;strokeWidth=3;fontSize=15;" vertex="1" parent="gjPDRfo1dXahzrAHLrhi-127">
          <mxGeometry y="330" width="180" height="30" as="geometry" />
        </mxCell>
        <mxCell id="gjPDRfo1dXahzrAHLrhi-177" value="" style="shape=partialRectangle;connectable=0;fillColor=none;top=0;left=0;bottom=0;right=0;editable=1;overflow=hidden;strokeWidth=3;fontSize=15;" vertex="1" parent="gjPDRfo1dXahzrAHLrhi-176">
          <mxGeometry width="30" height="30" as="geometry">
            <mxRectangle width="30" height="30" as="alternateBounds" />
          </mxGeometry>
        </mxCell>
        <mxCell id="gjPDRfo1dXahzrAHLrhi-178" value="Password" style="shape=partialRectangle;connectable=0;fillColor=none;top=0;left=0;bottom=0;right=0;align=left;spacingLeft=6;overflow=hidden;strokeWidth=3;fontSize=15;" vertex="1" parent="gjPDRfo1dXahzrAHLrhi-176">
          <mxGeometry x="30" width="150" height="30" as="geometry">
            <mxRectangle width="150" height="30" as="alternateBounds" />
          </mxGeometry>
        </mxCell>
        <mxCell id="gjPDRfo1dXahzrAHLrhi-179" value="" style="shape=tableRow;horizontal=0;startSize=0;swimlaneHead=0;swimlaneBody=0;fillColor=none;collapsible=0;dropTarget=0;points=[[0,0.5],[1,0.5]];portConstraint=eastwest;top=0;left=0;right=0;bottom=0;strokeWidth=3;fontSize=15;" vertex="1" parent="gjPDRfo1dXahzrAHLrhi-127">
          <mxGeometry y="360" width="180" height="30" as="geometry" />
        </mxCell>
        <mxCell id="gjPDRfo1dXahzrAHLrhi-180" value="" style="shape=partialRectangle;connectable=0;fillColor=none;top=0;left=0;bottom=0;right=0;editable=1;overflow=hidden;strokeWidth=3;fontSize=15;" vertex="1" parent="gjPDRfo1dXahzrAHLrhi-179">
          <mxGeometry width="30" height="30" as="geometry">
            <mxRectangle width="30" height="30" as="alternateBounds" />
          </mxGeometry>
        </mxCell>
        <mxCell id="gjPDRfo1dXahzrAHLrhi-181" value="Status" style="shape=partialRectangle;connectable=0;fillColor=none;top=0;left=0;bottom=0;right=0;align=left;spacingLeft=6;overflow=hidden;strokeWidth=3;fontSize=15;" vertex="1" parent="gjPDRfo1dXahzrAHLrhi-179">
          <mxGeometry x="30" width="150" height="30" as="geometry">
            <mxRectangle width="150" height="30" as="alternateBounds" />
          </mxGeometry>
        </mxCell>
        <mxCell id="gjPDRfo1dXahzrAHLrhi-185" value="Customer" style="shape=table;startSize=30;container=1;collapsible=1;childLayout=tableLayout;fixedRows=1;rowLines=0;fontStyle=1;align=center;resizeLast=1;html=1;fillColor=#dae8fc;strokeColor=#6c8ebf;strokeWidth=3;fontSize=15;" vertex="1" parent="1">
          <mxGeometry x="800" y="560" width="180" height="240" as="geometry" />
        </mxCell>
        <mxCell id="gjPDRfo1dXahzrAHLrhi-186" value="" style="shape=tableRow;horizontal=0;startSize=0;swimlaneHead=0;swimlaneBody=0;fillColor=#fff2cc;collapsible=0;dropTarget=0;points=[[0,0.5],[1,0.5]];portConstraint=eastwest;top=0;left=0;right=0;bottom=1;strokeColor=#d6b656;strokeWidth=3;fontSize=15;" vertex="1" parent="gjPDRfo1dXahzrAHLrhi-185">
          <mxGeometry y="30" width="180" height="30" as="geometry" />
        </mxCell>
        <mxCell id="gjPDRfo1dXahzrAHLrhi-187" value="PK" style="shape=partialRectangle;connectable=0;fillColor=none;top=0;left=0;bottom=0;right=0;fontStyle=1;overflow=hidden;whiteSpace=wrap;html=1;strokeWidth=3;fontSize=15;" vertex="1" parent="gjPDRfo1dXahzrAHLrhi-186">
          <mxGeometry width="30" height="30" as="geometry">
            <mxRectangle width="30" height="30" as="alternateBounds" />
          </mxGeometry>
        </mxCell>
        <mxCell id="gjPDRfo1dXahzrAHLrhi-188" value="id" style="shape=partialRectangle;connectable=0;fillColor=none;top=0;left=0;bottom=0;right=0;align=left;spacingLeft=6;fontStyle=5;overflow=hidden;whiteSpace=wrap;html=1;strokeWidth=3;fontSize=15;" vertex="1" parent="gjPDRfo1dXahzrAHLrhi-186">
          <mxGeometry x="30" width="150" height="30" as="geometry">
            <mxRectangle width="150" height="30" as="alternateBounds" />
          </mxGeometry>
        </mxCell>
        <mxCell id="gjPDRfo1dXahzrAHLrhi-189" value="" style="shape=tableRow;horizontal=0;startSize=0;swimlaneHead=0;swimlaneBody=0;fillColor=none;collapsible=0;dropTarget=0;points=[[0,0.5],[1,0.5]];portConstraint=eastwest;top=0;left=0;right=0;bottom=0;strokeWidth=3;fontSize=15;" vertex="1" parent="gjPDRfo1dXahzrAHLrhi-185">
          <mxGeometry y="60" width="180" height="30" as="geometry" />
        </mxCell>
        <mxCell id="gjPDRfo1dXahzrAHLrhi-190" value="FK" style="shape=partialRectangle;connectable=0;fillColor=none;top=0;left=0;bottom=0;right=0;fontStyle=0;overflow=hidden;whiteSpace=wrap;html=1;strokeWidth=3;fontSize=15;" vertex="1" parent="gjPDRfo1dXahzrAHLrhi-189">
          <mxGeometry width="30" height="30" as="geometry">
            <mxRectangle width="30" height="30" as="alternateBounds" />
          </mxGeometry>
        </mxCell>
        <mxCell id="gjPDRfo1dXahzrAHLrhi-191" value="Actor_Type" style="shape=partialRectangle;connectable=0;fillColor=none;top=0;left=0;bottom=0;right=0;align=left;spacingLeft=6;fontStyle=0;overflow=hidden;whiteSpace=wrap;html=1;strokeWidth=3;fontSize=15;" vertex="1" parent="gjPDRfo1dXahzrAHLrhi-189">
          <mxGeometry x="30" width="150" height="30" as="geometry">
            <mxRectangle width="150" height="30" as="alternateBounds" />
          </mxGeometry>
        </mxCell>
        <mxCell id="gjPDRfo1dXahzrAHLrhi-222" value="" style="shape=tableRow;horizontal=0;startSize=0;swimlaneHead=0;swimlaneBody=0;fillColor=none;collapsible=0;dropTarget=0;points=[[0,0.5],[1,0.5]];portConstraint=eastwest;top=0;left=0;right=0;bottom=0;strokeWidth=3;fontSize=15;" vertex="1" parent="gjPDRfo1dXahzrAHLrhi-185">
          <mxGeometry y="90" width="180" height="30" as="geometry" />
        </mxCell>
        <mxCell id="gjPDRfo1dXahzrAHLrhi-223" value="FK" style="shape=partialRectangle;connectable=0;fillColor=none;top=0;left=0;bottom=0;right=0;fontStyle=0;overflow=hidden;whiteSpace=wrap;html=1;strokeWidth=3;fontSize=15;" vertex="1" parent="gjPDRfo1dXahzrAHLrhi-222">
          <mxGeometry width="30" height="30" as="geometry">
            <mxRectangle width="30" height="30" as="alternateBounds" />
          </mxGeometry>
        </mxCell>
        <mxCell id="gjPDRfo1dXahzrAHLrhi-224" value="Customer_Type" style="shape=partialRectangle;connectable=0;fillColor=none;top=0;left=0;bottom=0;right=0;align=left;spacingLeft=6;fontStyle=0;overflow=hidden;whiteSpace=wrap;html=1;strokeWidth=3;fontSize=15;" vertex="1" parent="gjPDRfo1dXahzrAHLrhi-222">
          <mxGeometry x="30" width="150" height="30" as="geometry">
            <mxRectangle width="150" height="30" as="alternateBounds" />
          </mxGeometry>
        </mxCell>
        <mxCell id="gjPDRfo1dXahzrAHLrhi-192" value="" style="shape=tableRow;horizontal=0;startSize=0;swimlaneHead=0;swimlaneBody=0;fillColor=none;collapsible=0;dropTarget=0;points=[[0,0.5],[1,0.5]];portConstraint=eastwest;top=0;left=0;right=0;bottom=0;strokeWidth=3;fontSize=15;" vertex="1" parent="gjPDRfo1dXahzrAHLrhi-185">
          <mxGeometry y="120" width="180" height="30" as="geometry" />
        </mxCell>
        <mxCell id="gjPDRfo1dXahzrAHLrhi-193" value="" style="shape=partialRectangle;connectable=0;fillColor=none;top=0;left=0;bottom=0;right=0;editable=1;overflow=hidden;strokeWidth=3;fontSize=15;" vertex="1" parent="gjPDRfo1dXahzrAHLrhi-192">
          <mxGeometry width="30" height="30" as="geometry">
            <mxRectangle width="30" height="30" as="alternateBounds" />
          </mxGeometry>
        </mxCell>
        <mxCell id="gjPDRfo1dXahzrAHLrhi-194" value="Customer_F_Name" style="shape=partialRectangle;connectable=0;fillColor=none;top=0;left=0;bottom=0;right=0;align=left;spacingLeft=6;overflow=hidden;strokeWidth=3;fontSize=15;" vertex="1" parent="gjPDRfo1dXahzrAHLrhi-192">
          <mxGeometry x="30" width="150" height="30" as="geometry">
            <mxRectangle width="150" height="30" as="alternateBounds" />
          </mxGeometry>
        </mxCell>
        <mxCell id="gjPDRfo1dXahzrAHLrhi-195" value="" style="shape=tableRow;horizontal=0;startSize=0;swimlaneHead=0;swimlaneBody=0;fillColor=none;collapsible=0;dropTarget=0;points=[[0,0.5],[1,0.5]];portConstraint=eastwest;top=0;left=0;right=0;bottom=0;strokeWidth=3;fontSize=15;" vertex="1" parent="gjPDRfo1dXahzrAHLrhi-185">
          <mxGeometry y="150" width="180" height="30" as="geometry" />
        </mxCell>
        <mxCell id="gjPDRfo1dXahzrAHLrhi-196" value="" style="shape=partialRectangle;connectable=0;fillColor=none;top=0;left=0;bottom=0;right=0;editable=1;overflow=hidden;strokeWidth=3;fontSize=15;" vertex="1" parent="gjPDRfo1dXahzrAHLrhi-195">
          <mxGeometry width="30" height="30" as="geometry">
            <mxRectangle width="30" height="30" as="alternateBounds" />
          </mxGeometry>
        </mxCell>
        <mxCell id="gjPDRfo1dXahzrAHLrhi-197" value="Customer_L_Name" style="shape=partialRectangle;connectable=0;fillColor=none;top=0;left=0;bottom=0;right=0;align=left;spacingLeft=6;overflow=hidden;strokeWidth=3;fontSize=15;" vertex="1" parent="gjPDRfo1dXahzrAHLrhi-195">
          <mxGeometry x="30" width="150" height="30" as="geometry">
            <mxRectangle width="150" height="30" as="alternateBounds" />
          </mxGeometry>
        </mxCell>
        <mxCell id="gjPDRfo1dXahzrAHLrhi-198" value="" style="shape=tableRow;horizontal=0;startSize=0;swimlaneHead=0;swimlaneBody=0;fillColor=none;collapsible=0;dropTarget=0;points=[[0,0.5],[1,0.5]];portConstraint=eastwest;top=0;left=0;right=0;bottom=0;strokeWidth=3;fontSize=15;" vertex="1" parent="gjPDRfo1dXahzrAHLrhi-185">
          <mxGeometry y="180" width="180" height="30" as="geometry" />
        </mxCell>
        <mxCell id="gjPDRfo1dXahzrAHLrhi-199" value="" style="shape=partialRectangle;connectable=0;fillColor=none;top=0;left=0;bottom=0;right=0;editable=1;overflow=hidden;strokeWidth=3;fontSize=15;" vertex="1" parent="gjPDRfo1dXahzrAHLrhi-198">
          <mxGeometry width="30" height="30" as="geometry">
            <mxRectangle width="30" height="30" as="alternateBounds" />
          </mxGeometry>
        </mxCell>
        <mxCell id="gjPDRfo1dXahzrAHLrhi-200" value="Customer_Contact_No" style="shape=partialRectangle;connectable=0;fillColor=none;top=0;left=0;bottom=0;right=0;align=left;spacingLeft=6;overflow=hidden;strokeWidth=3;fontSize=15;" vertex="1" parent="gjPDRfo1dXahzrAHLrhi-198">
          <mxGeometry x="30" width="150" height="30" as="geometry">
            <mxRectangle width="150" height="30" as="alternateBounds" />
          </mxGeometry>
        </mxCell>
        <mxCell id="gjPDRfo1dXahzrAHLrhi-207" value="" style="shape=tableRow;horizontal=0;startSize=0;swimlaneHead=0;swimlaneBody=0;fillColor=none;collapsible=0;dropTarget=0;points=[[0,0.5],[1,0.5]];portConstraint=eastwest;top=0;left=0;right=0;bottom=0;strokeWidth=3;fontSize=15;" vertex="1" parent="gjPDRfo1dXahzrAHLrhi-185">
          <mxGeometry y="210" width="180" height="30" as="geometry" />
        </mxCell>
        <mxCell id="gjPDRfo1dXahzrAHLrhi-208" value="FK" style="shape=partialRectangle;connectable=0;fillColor=none;top=0;left=0;bottom=0;right=0;fontStyle=0;overflow=hidden;whiteSpace=wrap;html=1;strokeWidth=3;fontSize=15;" vertex="1" parent="gjPDRfo1dXahzrAHLrhi-207">
          <mxGeometry width="30" height="30" as="geometry">
            <mxRectangle width="30" height="30" as="alternateBounds" />
          </mxGeometry>
        </mxCell>
        <mxCell id="gjPDRfo1dXahzrAHLrhi-209" value="TD_Add" style="shape=partialRectangle;connectable=0;fillColor=none;top=0;left=0;bottom=0;right=0;align=left;spacingLeft=6;fontStyle=0;overflow=hidden;whiteSpace=wrap;html=1;strokeWidth=3;fontSize=15;" vertex="1" parent="gjPDRfo1dXahzrAHLrhi-207">
          <mxGeometry x="30" width="150" height="30" as="geometry">
            <mxRectangle width="150" height="30" as="alternateBounds" />
          </mxGeometry>
        </mxCell>
        <mxCell id="gjPDRfo1dXahzrAHLrhi-225" value="Actor_Type" style="shape=table;startSize=30;container=1;collapsible=1;childLayout=tableLayout;fixedRows=1;rowLines=0;fontStyle=1;align=center;resizeLast=1;html=1;fillColor=#dae8fc;strokeColor=#6c8ebf;strokeWidth=3;fontSize=15;" vertex="1" parent="1">
          <mxGeometry x="580" y="320" width="180" height="90" as="geometry" />
        </mxCell>
        <mxCell id="gjPDRfo1dXahzrAHLrhi-226" value="" style="shape=tableRow;horizontal=0;startSize=0;swimlaneHead=0;swimlaneBody=0;fillColor=#fff2cc;collapsible=0;dropTarget=0;points=[[0,0.5],[1,0.5]];portConstraint=eastwest;top=0;left=0;right=0;bottom=1;strokeColor=#d6b656;strokeWidth=3;fontSize=15;" vertex="1" parent="gjPDRfo1dXahzrAHLrhi-225">
          <mxGeometry y="30" width="180" height="30" as="geometry" />
        </mxCell>
        <mxCell id="gjPDRfo1dXahzrAHLrhi-227" value="PK" style="shape=partialRectangle;connectable=0;fillColor=none;top=0;left=0;bottom=0;right=0;fontStyle=1;overflow=hidden;whiteSpace=wrap;html=1;strokeWidth=3;fontSize=15;" vertex="1" parent="gjPDRfo1dXahzrAHLrhi-226">
          <mxGeometry width="30" height="30" as="geometry">
            <mxRectangle width="30" height="30" as="alternateBounds" />
          </mxGeometry>
        </mxCell>
        <mxCell id="gjPDRfo1dXahzrAHLrhi-228" value="id" style="shape=partialRectangle;connectable=0;fillColor=none;top=0;left=0;bottom=0;right=0;align=left;spacingLeft=6;fontStyle=5;overflow=hidden;whiteSpace=wrap;html=1;strokeWidth=3;fontSize=15;" vertex="1" parent="gjPDRfo1dXahzrAHLrhi-226">
          <mxGeometry x="30" width="150" height="30" as="geometry">
            <mxRectangle width="150" height="30" as="alternateBounds" />
          </mxGeometry>
        </mxCell>
        <mxCell id="gjPDRfo1dXahzrAHLrhi-235" value="" style="shape=tableRow;horizontal=0;startSize=0;swimlaneHead=0;swimlaneBody=0;fillColor=none;collapsible=0;dropTarget=0;points=[[0,0.5],[1,0.5]];portConstraint=eastwest;top=0;left=0;right=0;bottom=0;strokeWidth=3;fontSize=15;" vertex="1" parent="gjPDRfo1dXahzrAHLrhi-225">
          <mxGeometry y="60" width="180" height="30" as="geometry" />
        </mxCell>
        <mxCell id="gjPDRfo1dXahzrAHLrhi-236" value="" style="shape=partialRectangle;connectable=0;fillColor=none;top=0;left=0;bottom=0;right=0;editable=1;overflow=hidden;strokeWidth=3;fontSize=15;" vertex="1" parent="gjPDRfo1dXahzrAHLrhi-235">
          <mxGeometry width="30" height="30" as="geometry">
            <mxRectangle width="30" height="30" as="alternateBounds" />
          </mxGeometry>
        </mxCell>
        <mxCell id="gjPDRfo1dXahzrAHLrhi-237" value="Actor_Type_Desc" style="shape=partialRectangle;connectable=0;fillColor=none;top=0;left=0;bottom=0;right=0;align=left;spacingLeft=6;overflow=hidden;strokeWidth=3;fontSize=15;" vertex="1" parent="gjPDRfo1dXahzrAHLrhi-235">
          <mxGeometry x="30" width="150" height="30" as="geometry">
            <mxRectangle width="150" height="30" as="alternateBounds" />
          </mxGeometry>
        </mxCell>
        <mxCell id="gjPDRfo1dXahzrAHLrhi-247" value="Outlet_Type" style="shape=table;startSize=30;container=1;collapsible=1;childLayout=tableLayout;fixedRows=1;rowLines=0;fontStyle=1;align=center;resizeLast=1;html=1;fillColor=#dae8fc;strokeColor=#6c8ebf;strokeWidth=3;fontSize=15;" vertex="1" parent="1">
          <mxGeometry x="360" y="320" width="180" height="120" as="geometry" />
        </mxCell>
        <mxCell id="gjPDRfo1dXahzrAHLrhi-248" value="" style="shape=tableRow;horizontal=0;startSize=0;swimlaneHead=0;swimlaneBody=0;fillColor=#fff2cc;collapsible=0;dropTarget=0;points=[[0,0.5],[1,0.5]];portConstraint=eastwest;top=0;left=0;right=0;bottom=1;strokeColor=#d6b656;strokeWidth=3;fontSize=15;" vertex="1" parent="gjPDRfo1dXahzrAHLrhi-247">
          <mxGeometry y="30" width="180" height="30" as="geometry" />
        </mxCell>
        <mxCell id="gjPDRfo1dXahzrAHLrhi-249" value="PK" style="shape=partialRectangle;connectable=0;fillColor=none;top=0;left=0;bottom=0;right=0;fontStyle=1;overflow=hidden;whiteSpace=wrap;html=1;strokeWidth=3;fontSize=15;" vertex="1" parent="gjPDRfo1dXahzrAHLrhi-248">
          <mxGeometry width="30" height="30" as="geometry">
            <mxRectangle width="30" height="30" as="alternateBounds" />
          </mxGeometry>
        </mxCell>
        <mxCell id="gjPDRfo1dXahzrAHLrhi-250" value="id" style="shape=partialRectangle;connectable=0;fillColor=none;top=0;left=0;bottom=0;right=0;align=left;spacingLeft=6;fontStyle=5;overflow=hidden;whiteSpace=wrap;html=1;strokeWidth=3;fontSize=15;" vertex="1" parent="gjPDRfo1dXahzrAHLrhi-248">
          <mxGeometry x="30" width="150" height="30" as="geometry">
            <mxRectangle width="150" height="30" as="alternateBounds" />
          </mxGeometry>
        </mxCell>
        <mxCell id="gjPDRfo1dXahzrAHLrhi-251" value="" style="shape=tableRow;horizontal=0;startSize=0;swimlaneHead=0;swimlaneBody=0;fillColor=none;collapsible=0;dropTarget=0;points=[[0,0.5],[1,0.5]];portConstraint=eastwest;top=0;left=0;right=0;bottom=0;strokeWidth=3;fontSize=15;" vertex="1" parent="gjPDRfo1dXahzrAHLrhi-247">
          <mxGeometry y="60" width="180" height="30" as="geometry" />
        </mxCell>
        <mxCell id="gjPDRfo1dXahzrAHLrhi-252" value="" style="shape=partialRectangle;connectable=0;fillColor=none;top=0;left=0;bottom=0;right=0;editable=1;overflow=hidden;strokeWidth=3;fontSize=15;" vertex="1" parent="gjPDRfo1dXahzrAHLrhi-251">
          <mxGeometry width="30" height="30" as="geometry">
            <mxRectangle width="30" height="30" as="alternateBounds" />
          </mxGeometry>
        </mxCell>
        <mxCell id="gjPDRfo1dXahzrAHLrhi-253" value="Name" style="shape=partialRectangle;connectable=0;fillColor=none;top=0;left=0;bottom=0;right=0;align=left;spacingLeft=6;overflow=hidden;strokeWidth=3;fontSize=15;" vertex="1" parent="gjPDRfo1dXahzrAHLrhi-251">
          <mxGeometry x="30" width="150" height="30" as="geometry">
            <mxRectangle width="150" height="30" as="alternateBounds" />
          </mxGeometry>
        </mxCell>
        <mxCell id="gjPDRfo1dXahzrAHLrhi-254" value="" style="shape=tableRow;horizontal=0;startSize=0;swimlaneHead=0;swimlaneBody=0;fillColor=none;collapsible=0;dropTarget=0;points=[[0,0.5],[1,0.5]];portConstraint=eastwest;top=0;left=0;right=0;bottom=0;strokeWidth=3;fontSize=15;" vertex="1" parent="gjPDRfo1dXahzrAHLrhi-247">
          <mxGeometry y="90" width="180" height="30" as="geometry" />
        </mxCell>
        <mxCell id="gjPDRfo1dXahzrAHLrhi-255" value="" style="shape=partialRectangle;connectable=0;fillColor=none;top=0;left=0;bottom=0;right=0;editable=1;overflow=hidden;strokeWidth=3;fontSize=15;" vertex="1" parent="gjPDRfo1dXahzrAHLrhi-254">
          <mxGeometry width="30" height="30" as="geometry">
            <mxRectangle width="30" height="30" as="alternateBounds" />
          </mxGeometry>
        </mxCell>
        <mxCell id="gjPDRfo1dXahzrAHLrhi-256" value="Discount" style="shape=partialRectangle;connectable=0;fillColor=none;top=0;left=0;bottom=0;right=0;align=left;spacingLeft=6;overflow=hidden;strokeWidth=3;fontSize=15;" vertex="1" parent="gjPDRfo1dXahzrAHLrhi-254">
          <mxGeometry x="30" width="150" height="30" as="geometry">
            <mxRectangle width="150" height="30" as="alternateBounds" />
          </mxGeometry>
        </mxCell>
        <mxCell id="gjPDRfo1dXahzrAHLrhi-257" value="Customer_Type" style="shape=table;startSize=30;container=1;collapsible=1;childLayout=tableLayout;fixedRows=1;rowLines=0;fontStyle=1;align=center;resizeLast=1;html=1;fillColor=#dae8fc;strokeColor=#6c8ebf;strokeWidth=3;fontSize=15;" vertex="1" parent="1">
          <mxGeometry x="800" y="320" width="180" height="120" as="geometry" />
        </mxCell>
        <mxCell id="gjPDRfo1dXahzrAHLrhi-258" value="" style="shape=tableRow;horizontal=0;startSize=0;swimlaneHead=0;swimlaneBody=0;fillColor=#fff2cc;collapsible=0;dropTarget=0;points=[[0,0.5],[1,0.5]];portConstraint=eastwest;top=0;left=0;right=0;bottom=1;strokeColor=#d6b656;strokeWidth=3;fontSize=15;" vertex="1" parent="gjPDRfo1dXahzrAHLrhi-257">
          <mxGeometry y="30" width="180" height="30" as="geometry" />
        </mxCell>
        <mxCell id="gjPDRfo1dXahzrAHLrhi-259" value="PK" style="shape=partialRectangle;connectable=0;fillColor=none;top=0;left=0;bottom=0;right=0;fontStyle=1;overflow=hidden;whiteSpace=wrap;html=1;strokeWidth=3;fontSize=15;" vertex="1" parent="gjPDRfo1dXahzrAHLrhi-258">
          <mxGeometry width="30" height="30" as="geometry">
            <mxRectangle width="30" height="30" as="alternateBounds" />
          </mxGeometry>
        </mxCell>
        <mxCell id="gjPDRfo1dXahzrAHLrhi-260" value="id" style="shape=partialRectangle;connectable=0;fillColor=none;top=0;left=0;bottom=0;right=0;align=left;spacingLeft=6;fontStyle=5;overflow=hidden;whiteSpace=wrap;html=1;strokeWidth=3;fontSize=15;" vertex="1" parent="gjPDRfo1dXahzrAHLrhi-258">
          <mxGeometry x="30" width="150" height="30" as="geometry">
            <mxRectangle width="150" height="30" as="alternateBounds" />
          </mxGeometry>
        </mxCell>
        <mxCell id="gjPDRfo1dXahzrAHLrhi-261" value="" style="shape=tableRow;horizontal=0;startSize=0;swimlaneHead=0;swimlaneBody=0;fillColor=none;collapsible=0;dropTarget=0;points=[[0,0.5],[1,0.5]];portConstraint=eastwest;top=0;left=0;right=0;bottom=0;strokeWidth=3;fontSize=15;" vertex="1" parent="gjPDRfo1dXahzrAHLrhi-257">
          <mxGeometry y="60" width="180" height="30" as="geometry" />
        </mxCell>
        <mxCell id="gjPDRfo1dXahzrAHLrhi-262" value="" style="shape=partialRectangle;connectable=0;fillColor=none;top=0;left=0;bottom=0;right=0;editable=1;overflow=hidden;strokeWidth=3;fontSize=15;" vertex="1" parent="gjPDRfo1dXahzrAHLrhi-261">
          <mxGeometry width="30" height="30" as="geometry">
            <mxRectangle width="30" height="30" as="alternateBounds" />
          </mxGeometry>
        </mxCell>
        <mxCell id="gjPDRfo1dXahzrAHLrhi-263" value="Name" style="shape=partialRectangle;connectable=0;fillColor=none;top=0;left=0;bottom=0;right=0;align=left;spacingLeft=6;overflow=hidden;strokeWidth=3;fontSize=15;" vertex="1" parent="gjPDRfo1dXahzrAHLrhi-261">
          <mxGeometry x="30" width="150" height="30" as="geometry">
            <mxRectangle width="150" height="30" as="alternateBounds" />
          </mxGeometry>
        </mxCell>
        <mxCell id="gjPDRfo1dXahzrAHLrhi-264" value="" style="shape=tableRow;horizontal=0;startSize=0;swimlaneHead=0;swimlaneBody=0;fillColor=none;collapsible=0;dropTarget=0;points=[[0,0.5],[1,0.5]];portConstraint=eastwest;top=0;left=0;right=0;bottom=0;strokeWidth=3;fontSize=15;" vertex="1" parent="gjPDRfo1dXahzrAHLrhi-257">
          <mxGeometry y="90" width="180" height="30" as="geometry" />
        </mxCell>
        <mxCell id="gjPDRfo1dXahzrAHLrhi-265" value="" style="shape=partialRectangle;connectable=0;fillColor=none;top=0;left=0;bottom=0;right=0;editable=1;overflow=hidden;strokeWidth=3;fontSize=15;" vertex="1" parent="gjPDRfo1dXahzrAHLrhi-264">
          <mxGeometry width="30" height="30" as="geometry">
            <mxRectangle width="30" height="30" as="alternateBounds" />
          </mxGeometry>
        </mxCell>
        <mxCell id="gjPDRfo1dXahzrAHLrhi-266" value="Discount" style="shape=partialRectangle;connectable=0;fillColor=none;top=0;left=0;bottom=0;right=0;align=left;spacingLeft=6;overflow=hidden;strokeWidth=3;fontSize=15;" vertex="1" parent="gjPDRfo1dXahzrAHLrhi-264">
          <mxGeometry x="30" width="150" height="30" as="geometry">
            <mxRectangle width="150" height="30" as="alternateBounds" />
          </mxGeometry>
        </mxCell>
        <mxCell id="gjPDRfo1dXahzrAHLrhi-269" value="" style="endArrow=none;html=1;rounded=0;entryX=0.331;entryY=0.944;entryDx=0;entryDy=0;entryPerimeter=0;exitX=0.444;exitY=0.003;exitDx=0;exitDy=0;exitPerimeter=0;strokeWidth=3;fontSize=15;" edge="1" parent="1" source="gjPDRfo1dXahzrAHLrhi-51" target="gjPDRfo1dXahzrAHLrhi-235">
          <mxGeometry relative="1" as="geometry">
            <mxPoint x="610" y="530" as="sourcePoint" />
            <mxPoint x="770" y="530" as="targetPoint" />
            <Array as="points">
              <mxPoint x="440" y="480" />
              <mxPoint x="640" y="480" />
            </Array>
          </mxGeometry>
        </mxCell>
        <mxCell id="gjPDRfo1dXahzrAHLrhi-270" value="" style="endArrow=none;html=1;rounded=0;entryX=0.723;entryY=1.044;entryDx=0;entryDy=0;entryPerimeter=0;exitX=0.5;exitY=0;exitDx=0;exitDy=0;strokeWidth=3;fontSize=15;" edge="1" parent="1" source="gjPDRfo1dXahzrAHLrhi-185" target="gjPDRfo1dXahzrAHLrhi-235">
          <mxGeometry relative="1" as="geometry">
            <mxPoint x="449" y="567" as="sourcePoint" />
            <mxPoint x="679" y="423" as="targetPoint" />
            <Array as="points">
              <mxPoint x="890" y="480" />
              <mxPoint x="710" y="480" />
            </Array>
          </mxGeometry>
        </mxCell>
        <mxCell id="gjPDRfo1dXahzrAHLrhi-271" value="" style="endArrow=none;html=1;rounded=0;entryX=0.515;entryY=0.954;entryDx=0;entryDy=0;entryPerimeter=0;exitX=0.5;exitY=0;exitDx=0;exitDy=0;strokeWidth=3;fontSize=15;" edge="1" parent="1" source="gjPDRfo1dXahzrAHLrhi-127" target="gjPDRfo1dXahzrAHLrhi-235">
          <mxGeometry relative="1" as="geometry">
            <mxPoint x="610" y="570" as="sourcePoint" />
            <mxPoint x="770" y="570" as="targetPoint" />
          </mxGeometry>
        </mxCell>
        <mxCell id="gjPDRfo1dXahzrAHLrhi-272" value="" style="endArrow=none;html=1;rounded=0;entryX=0.22;entryY=1.041;entryDx=0;entryDy=0;entryPerimeter=0;exitX=0.219;exitY=-0.001;exitDx=0;exitDy=0;exitPerimeter=0;strokeWidth=3;fontSize=15;" edge="1" parent="1" source="gjPDRfo1dXahzrAHLrhi-51" target="gjPDRfo1dXahzrAHLrhi-254">
          <mxGeometry relative="1" as="geometry">
            <mxPoint x="600" y="470" as="sourcePoint" />
            <mxPoint x="760" y="470" as="targetPoint" />
          </mxGeometry>
        </mxCell>
        <mxCell id="gjPDRfo1dXahzrAHLrhi-276" value="" style="endArrow=none;html=1;rounded=0;entryX=0.661;entryY=1.032;entryDx=0;entryDy=0;entryPerimeter=0;exitX=0.669;exitY=-0.008;exitDx=0;exitDy=0;exitPerimeter=0;strokeWidth=3;fontSize=15;" edge="1" parent="1" source="gjPDRfo1dXahzrAHLrhi-185" target="gjPDRfo1dXahzrAHLrhi-264">
          <mxGeometry relative="1" as="geometry">
            <mxPoint x="730" y="530" as="sourcePoint" />
            <mxPoint x="890" y="530" as="targetPoint" />
          </mxGeometry>
        </mxCell>
        <mxCell id="gjPDRfo1dXahzrAHLrhi-277" value="Bank_Detail" style="shape=table;startSize=30;container=1;collapsible=1;childLayout=tableLayout;fixedRows=1;rowLines=0;fontStyle=1;align=center;resizeLast=1;html=1;fillColor=#dae8fc;strokeColor=#6c8ebf;strokeWidth=3;fontSize=15;" vertex="1" parent="1">
          <mxGeometry x="154" y="1240" width="190.00000000000023" height="300" as="geometry" />
        </mxCell>
        <mxCell id="gjPDRfo1dXahzrAHLrhi-278" value="" style="shape=tableRow;horizontal=0;startSize=0;swimlaneHead=0;swimlaneBody=0;fillColor=#fff2cc;collapsible=0;dropTarget=0;points=[[0,0.5],[1,0.5]];portConstraint=eastwest;top=0;left=0;right=0;bottom=1;strokeColor=#d6b656;strokeWidth=3;fontSize=15;" vertex="1" parent="gjPDRfo1dXahzrAHLrhi-277">
          <mxGeometry y="30" width="190.00000000000023" height="30" as="geometry" />
        </mxCell>
        <mxCell id="gjPDRfo1dXahzrAHLrhi-279" value="PK" style="shape=partialRectangle;connectable=0;fillColor=none;top=0;left=0;bottom=0;right=0;fontStyle=1;overflow=hidden;whiteSpace=wrap;html=1;strokeWidth=3;fontSize=15;" vertex="1" parent="gjPDRfo1dXahzrAHLrhi-278">
          <mxGeometry width="30" height="30" as="geometry">
            <mxRectangle width="30" height="30" as="alternateBounds" />
          </mxGeometry>
        </mxCell>
        <mxCell id="gjPDRfo1dXahzrAHLrhi-280" value="id" style="shape=partialRectangle;connectable=0;fillColor=none;top=0;left=0;bottom=0;right=0;align=left;spacingLeft=6;fontStyle=5;overflow=hidden;whiteSpace=wrap;html=1;strokeWidth=3;fontSize=15;" vertex="1" parent="gjPDRfo1dXahzrAHLrhi-278">
          <mxGeometry x="30" width="160.00000000000023" height="30" as="geometry">
            <mxRectangle width="160.00000000000023" height="30" as="alternateBounds" />
          </mxGeometry>
        </mxCell>
        <mxCell id="gjPDRfo1dXahzrAHLrhi-281" value="" style="shape=tableRow;horizontal=0;startSize=0;swimlaneHead=0;swimlaneBody=0;fillColor=none;collapsible=0;dropTarget=0;points=[[0,0.5],[1,0.5]];portConstraint=eastwest;top=0;left=0;right=0;bottom=0;strokeWidth=3;fontSize=15;" vertex="1" parent="gjPDRfo1dXahzrAHLrhi-277">
          <mxGeometry y="60" width="190.00000000000023" height="30" as="geometry" />
        </mxCell>
        <mxCell id="gjPDRfo1dXahzrAHLrhi-282" value="FK" style="shape=partialRectangle;connectable=0;fillColor=none;top=0;left=0;bottom=0;right=0;fontStyle=0;overflow=hidden;whiteSpace=wrap;html=1;strokeWidth=3;fontSize=15;" vertex="1" parent="gjPDRfo1dXahzrAHLrhi-281">
          <mxGeometry width="30" height="30" as="geometry">
            <mxRectangle width="30" height="30" as="alternateBounds" />
          </mxGeometry>
        </mxCell>
        <mxCell id="gjPDRfo1dXahzrAHLrhi-283" value="Actor_Type" style="shape=partialRectangle;connectable=0;fillColor=none;top=0;left=0;bottom=0;right=0;align=left;spacingLeft=6;fontStyle=0;overflow=hidden;whiteSpace=wrap;html=1;strokeWidth=3;fontSize=15;" vertex="1" parent="gjPDRfo1dXahzrAHLrhi-281">
          <mxGeometry x="30" width="160.00000000000023" height="30" as="geometry">
            <mxRectangle width="160.00000000000023" height="30" as="alternateBounds" />
          </mxGeometry>
        </mxCell>
        <mxCell id="gjPDRfo1dXahzrAHLrhi-287" value="" style="shape=tableRow;horizontal=0;startSize=0;swimlaneHead=0;swimlaneBody=0;fillColor=none;collapsible=0;dropTarget=0;points=[[0,0.5],[1,0.5]];portConstraint=eastwest;top=0;left=0;right=0;bottom=0;strokeWidth=3;fontSize=15;" vertex="1" parent="gjPDRfo1dXahzrAHLrhi-277">
          <mxGeometry y="90" width="190.00000000000023" height="30" as="geometry" />
        </mxCell>
        <mxCell id="gjPDRfo1dXahzrAHLrhi-288" value="" style="shape=partialRectangle;connectable=0;fillColor=none;top=0;left=0;bottom=0;right=0;editable=1;overflow=hidden;strokeWidth=3;fontSize=15;" vertex="1" parent="gjPDRfo1dXahzrAHLrhi-287">
          <mxGeometry width="30" height="30" as="geometry">
            <mxRectangle width="30" height="30" as="alternateBounds" />
          </mxGeometry>
        </mxCell>
        <mxCell id="gjPDRfo1dXahzrAHLrhi-289" value="Bank_Detail_Name" style="shape=partialRectangle;connectable=0;fillColor=none;top=0;left=0;bottom=0;right=0;align=left;spacingLeft=6;overflow=hidden;strokeWidth=3;fontSize=15;" vertex="1" parent="gjPDRfo1dXahzrAHLrhi-287">
          <mxGeometry x="30" width="160.00000000000023" height="30" as="geometry">
            <mxRectangle width="160.00000000000023" height="30" as="alternateBounds" />
          </mxGeometry>
        </mxCell>
        <mxCell id="gjPDRfo1dXahzrAHLrhi-290" value="" style="shape=tableRow;horizontal=0;startSize=0;swimlaneHead=0;swimlaneBody=0;fillColor=none;collapsible=0;dropTarget=0;points=[[0,0.5],[1,0.5]];portConstraint=eastwest;top=0;left=0;right=0;bottom=0;strokeWidth=3;fontSize=15;" vertex="1" parent="gjPDRfo1dXahzrAHLrhi-277">
          <mxGeometry y="120" width="190.00000000000023" height="30" as="geometry" />
        </mxCell>
        <mxCell id="gjPDRfo1dXahzrAHLrhi-291" value="" style="shape=partialRectangle;connectable=0;fillColor=none;top=0;left=0;bottom=0;right=0;editable=1;overflow=hidden;strokeWidth=3;fontSize=15;" vertex="1" parent="gjPDRfo1dXahzrAHLrhi-290">
          <mxGeometry width="30" height="30" as="geometry">
            <mxRectangle width="30" height="30" as="alternateBounds" />
          </mxGeometry>
        </mxCell>
        <mxCell id="gjPDRfo1dXahzrAHLrhi-292" value="Bank_Detail_Ac_No" style="shape=partialRectangle;connectable=0;fillColor=none;top=0;left=0;bottom=0;right=0;align=left;spacingLeft=6;overflow=hidden;strokeWidth=3;fontSize=15;" vertex="1" parent="gjPDRfo1dXahzrAHLrhi-290">
          <mxGeometry x="30" width="160.00000000000023" height="30" as="geometry">
            <mxRectangle width="160.00000000000023" height="30" as="alternateBounds" />
          </mxGeometry>
        </mxCell>
        <mxCell id="gjPDRfo1dXahzrAHLrhi-293" value="" style="shape=tableRow;horizontal=0;startSize=0;swimlaneHead=0;swimlaneBody=0;fillColor=none;collapsible=0;dropTarget=0;points=[[0,0.5],[1,0.5]];portConstraint=eastwest;top=0;left=0;right=0;bottom=0;strokeWidth=3;fontSize=15;" vertex="1" parent="gjPDRfo1dXahzrAHLrhi-277">
          <mxGeometry y="150" width="190.00000000000023" height="30" as="geometry" />
        </mxCell>
        <mxCell id="gjPDRfo1dXahzrAHLrhi-294" value="" style="shape=partialRectangle;connectable=0;fillColor=none;top=0;left=0;bottom=0;right=0;editable=1;overflow=hidden;strokeWidth=3;fontSize=15;" vertex="1" parent="gjPDRfo1dXahzrAHLrhi-293">
          <mxGeometry width="30" height="30" as="geometry">
            <mxRectangle width="30" height="30" as="alternateBounds" />
          </mxGeometry>
        </mxCell>
        <mxCell id="gjPDRfo1dXahzrAHLrhi-295" value="Bank_Detail_Ac_Type" style="shape=partialRectangle;connectable=0;fillColor=none;top=0;left=0;bottom=0;right=0;align=left;spacingLeft=6;overflow=hidden;strokeWidth=3;fontSize=15;" vertex="1" parent="gjPDRfo1dXahzrAHLrhi-293">
          <mxGeometry x="30" width="160.00000000000023" height="30" as="geometry">
            <mxRectangle width="160.00000000000023" height="30" as="alternateBounds" />
          </mxGeometry>
        </mxCell>
        <mxCell id="gjPDRfo1dXahzrAHLrhi-299" value="" style="shape=tableRow;horizontal=0;startSize=0;swimlaneHead=0;swimlaneBody=0;fillColor=none;collapsible=0;dropTarget=0;points=[[0,0.5],[1,0.5]];portConstraint=eastwest;top=0;left=0;right=0;bottom=0;strokeWidth=3;fontSize=15;" vertex="1" parent="gjPDRfo1dXahzrAHLrhi-277">
          <mxGeometry y="180" width="190.00000000000023" height="30" as="geometry" />
        </mxCell>
        <mxCell id="gjPDRfo1dXahzrAHLrhi-300" value="" style="shape=partialRectangle;connectable=0;fillColor=none;top=0;left=0;bottom=0;right=0;editable=1;overflow=hidden;strokeWidth=3;fontSize=15;" vertex="1" parent="gjPDRfo1dXahzrAHLrhi-299">
          <mxGeometry width="30" height="30" as="geometry">
            <mxRectangle width="30" height="30" as="alternateBounds" />
          </mxGeometry>
        </mxCell>
        <mxCell id="gjPDRfo1dXahzrAHLrhi-301" value="Bank_Detail_Bank_Name" style="shape=partialRectangle;connectable=0;fillColor=none;top=0;left=0;bottom=0;right=0;align=left;spacingLeft=6;overflow=hidden;strokeWidth=3;fontSize=15;" vertex="1" parent="gjPDRfo1dXahzrAHLrhi-299">
          <mxGeometry x="30" width="160.00000000000023" height="30" as="geometry">
            <mxRectangle width="160.00000000000023" height="30" as="alternateBounds" />
          </mxGeometry>
        </mxCell>
        <mxCell id="gjPDRfo1dXahzrAHLrhi-302" value="" style="shape=tableRow;horizontal=0;startSize=0;swimlaneHead=0;swimlaneBody=0;fillColor=none;collapsible=0;dropTarget=0;points=[[0,0.5],[1,0.5]];portConstraint=eastwest;top=0;left=0;right=0;bottom=0;strokeWidth=3;fontSize=15;" vertex="1" parent="gjPDRfo1dXahzrAHLrhi-277">
          <mxGeometry y="210" width="190.00000000000023" height="30" as="geometry" />
        </mxCell>
        <mxCell id="gjPDRfo1dXahzrAHLrhi-303" value="" style="shape=partialRectangle;connectable=0;fillColor=none;top=0;left=0;bottom=0;right=0;editable=1;overflow=hidden;strokeWidth=3;fontSize=15;" vertex="1" parent="gjPDRfo1dXahzrAHLrhi-302">
          <mxGeometry width="30" height="30" as="geometry">
            <mxRectangle width="30" height="30" as="alternateBounds" />
          </mxGeometry>
        </mxCell>
        <mxCell id="gjPDRfo1dXahzrAHLrhi-304" value="Bank_Detail_Branch_Name" style="shape=partialRectangle;connectable=0;fillColor=none;top=0;left=0;bottom=0;right=0;align=left;spacingLeft=6;overflow=hidden;strokeWidth=3;fontSize=15;" vertex="1" parent="gjPDRfo1dXahzrAHLrhi-302">
          <mxGeometry x="30" width="160.00000000000023" height="30" as="geometry">
            <mxRectangle width="160.00000000000023" height="30" as="alternateBounds" />
          </mxGeometry>
        </mxCell>
        <mxCell id="gjPDRfo1dXahzrAHLrhi-305" value="" style="shape=tableRow;horizontal=0;startSize=0;swimlaneHead=0;swimlaneBody=0;fillColor=none;collapsible=0;dropTarget=0;points=[[0,0.5],[1,0.5]];portConstraint=eastwest;top=0;left=0;right=0;bottom=0;strokeWidth=3;fontSize=15;" vertex="1" parent="gjPDRfo1dXahzrAHLrhi-277">
          <mxGeometry y="240" width="190.00000000000023" height="30" as="geometry" />
        </mxCell>
        <mxCell id="gjPDRfo1dXahzrAHLrhi-306" value="" style="shape=partialRectangle;connectable=0;fillColor=none;top=0;left=0;bottom=0;right=0;editable=1;overflow=hidden;strokeWidth=3;fontSize=15;" vertex="1" parent="gjPDRfo1dXahzrAHLrhi-305">
          <mxGeometry width="30" height="30" as="geometry">
            <mxRectangle width="30" height="30" as="alternateBounds" />
          </mxGeometry>
        </mxCell>
        <mxCell id="gjPDRfo1dXahzrAHLrhi-307" value="Bank_Detail_IFSC_Code" style="shape=partialRectangle;connectable=0;fillColor=none;top=0;left=0;bottom=0;right=0;align=left;spacingLeft=6;overflow=hidden;strokeWidth=3;fontSize=15;" vertex="1" parent="gjPDRfo1dXahzrAHLrhi-305">
          <mxGeometry x="30" width="160.00000000000023" height="30" as="geometry">
            <mxRectangle width="160.00000000000023" height="30" as="alternateBounds" />
          </mxGeometry>
        </mxCell>
        <mxCell id="gjPDRfo1dXahzrAHLrhi-308" value="" style="shape=tableRow;horizontal=0;startSize=0;swimlaneHead=0;swimlaneBody=0;fillColor=none;collapsible=0;dropTarget=0;points=[[0,0.5],[1,0.5]];portConstraint=eastwest;top=0;left=0;right=0;bottom=0;strokeWidth=3;fontSize=15;" vertex="1" parent="gjPDRfo1dXahzrAHLrhi-277">
          <mxGeometry y="270" width="190.00000000000023" height="30" as="geometry" />
        </mxCell>
        <mxCell id="gjPDRfo1dXahzrAHLrhi-309" value="" style="shape=partialRectangle;connectable=0;fillColor=none;top=0;left=0;bottom=0;right=0;editable=1;overflow=hidden;strokeWidth=3;fontSize=15;" vertex="1" parent="gjPDRfo1dXahzrAHLrhi-308">
          <mxGeometry width="30" height="30" as="geometry">
            <mxRectangle width="30" height="30" as="alternateBounds" />
          </mxGeometry>
        </mxCell>
        <mxCell id="gjPDRfo1dXahzrAHLrhi-310" value="Status" style="shape=partialRectangle;connectable=0;fillColor=none;top=0;left=0;bottom=0;right=0;align=left;spacingLeft=6;overflow=hidden;strokeWidth=3;fontSize=15;" vertex="1" parent="gjPDRfo1dXahzrAHLrhi-308">
          <mxGeometry x="30" width="160.00000000000023" height="30" as="geometry">
            <mxRectangle width="160.00000000000023" height="30" as="alternateBounds" />
          </mxGeometry>
        </mxCell>
        <mxCell id="gjPDRfo1dXahzrAHLrhi-311" value="KYC" style="shape=table;startSize=30;container=1;collapsible=1;childLayout=tableLayout;fixedRows=1;rowLines=0;fontStyle=1;align=center;resizeLast=1;html=1;fillColor=#dae8fc;strokeColor=#6c8ebf;strokeWidth=3;fontSize=15;" vertex="1" parent="1">
          <mxGeometry x="584" y="1240" width="196" height="360" as="geometry" />
        </mxCell>
        <mxCell id="gjPDRfo1dXahzrAHLrhi-312" value="" style="shape=tableRow;horizontal=0;startSize=0;swimlaneHead=0;swimlaneBody=0;fillColor=#fff2cc;collapsible=0;dropTarget=0;points=[[0,0.5],[1,0.5]];portConstraint=eastwest;top=0;left=0;right=0;bottom=1;strokeColor=#d6b656;strokeWidth=3;fontSize=15;" vertex="1" parent="gjPDRfo1dXahzrAHLrhi-311">
          <mxGeometry y="30" width="196" height="30" as="geometry" />
        </mxCell>
        <mxCell id="gjPDRfo1dXahzrAHLrhi-313" value="PK" style="shape=partialRectangle;connectable=0;fillColor=none;top=0;left=0;bottom=0;right=0;fontStyle=1;overflow=hidden;whiteSpace=wrap;html=1;strokeWidth=3;fontSize=15;" vertex="1" parent="gjPDRfo1dXahzrAHLrhi-312">
          <mxGeometry width="30" height="30" as="geometry">
            <mxRectangle width="30" height="30" as="alternateBounds" />
          </mxGeometry>
        </mxCell>
        <mxCell id="gjPDRfo1dXahzrAHLrhi-314" value="id" style="shape=partialRectangle;connectable=0;fillColor=none;top=0;left=0;bottom=0;right=0;align=left;spacingLeft=6;fontStyle=5;overflow=hidden;whiteSpace=wrap;html=1;strokeWidth=3;fontSize=15;" vertex="1" parent="gjPDRfo1dXahzrAHLrhi-312">
          <mxGeometry x="30" width="166" height="30" as="geometry">
            <mxRectangle width="166" height="30" as="alternateBounds" />
          </mxGeometry>
        </mxCell>
        <mxCell id="gjPDRfo1dXahzrAHLrhi-315" value="" style="shape=tableRow;horizontal=0;startSize=0;swimlaneHead=0;swimlaneBody=0;fillColor=none;collapsible=0;dropTarget=0;points=[[0,0.5],[1,0.5]];portConstraint=eastwest;top=0;left=0;right=0;bottom=0;strokeWidth=3;fontSize=15;" vertex="1" parent="gjPDRfo1dXahzrAHLrhi-311">
          <mxGeometry y="60" width="196" height="30" as="geometry" />
        </mxCell>
        <mxCell id="gjPDRfo1dXahzrAHLrhi-316" value="FK" style="shape=partialRectangle;connectable=0;fillColor=none;top=0;left=0;bottom=0;right=0;fontStyle=0;overflow=hidden;whiteSpace=wrap;html=1;strokeWidth=3;fontSize=15;" vertex="1" parent="gjPDRfo1dXahzrAHLrhi-315">
          <mxGeometry width="30" height="30" as="geometry">
            <mxRectangle width="30" height="30" as="alternateBounds" />
          </mxGeometry>
        </mxCell>
        <mxCell id="gjPDRfo1dXahzrAHLrhi-317" value="Actor_Type" style="shape=partialRectangle;connectable=0;fillColor=none;top=0;left=0;bottom=0;right=0;align=left;spacingLeft=6;fontStyle=0;overflow=hidden;whiteSpace=wrap;html=1;strokeWidth=3;fontSize=15;" vertex="1" parent="gjPDRfo1dXahzrAHLrhi-315">
          <mxGeometry x="30" width="166" height="30" as="geometry">
            <mxRectangle width="166" height="30" as="alternateBounds" />
          </mxGeometry>
        </mxCell>
        <mxCell id="gjPDRfo1dXahzrAHLrhi-318" value="" style="shape=tableRow;horizontal=0;startSize=0;swimlaneHead=0;swimlaneBody=0;fillColor=none;collapsible=0;dropTarget=0;points=[[0,0.5],[1,0.5]];portConstraint=eastwest;top=0;left=0;right=0;bottom=0;strokeWidth=3;fontSize=15;" vertex="1" parent="gjPDRfo1dXahzrAHLrhi-311">
          <mxGeometry y="90" width="196" height="30" as="geometry" />
        </mxCell>
        <mxCell id="gjPDRfo1dXahzrAHLrhi-319" value="" style="shape=partialRectangle;connectable=0;fillColor=none;top=0;left=0;bottom=0;right=0;editable=1;overflow=hidden;strokeWidth=3;fontSize=15;" vertex="1" parent="gjPDRfo1dXahzrAHLrhi-318">
          <mxGeometry width="30" height="30" as="geometry">
            <mxRectangle width="30" height="30" as="alternateBounds" />
          </mxGeometry>
        </mxCell>
        <mxCell id="gjPDRfo1dXahzrAHLrhi-320" value="KYC_Name" style="shape=partialRectangle;connectable=0;fillColor=none;top=0;left=0;bottom=0;right=0;align=left;spacingLeft=6;overflow=hidden;strokeWidth=3;fontSize=15;" vertex="1" parent="gjPDRfo1dXahzrAHLrhi-318">
          <mxGeometry x="30" width="166" height="30" as="geometry">
            <mxRectangle width="166" height="30" as="alternateBounds" />
          </mxGeometry>
        </mxCell>
        <mxCell id="gjPDRfo1dXahzrAHLrhi-339" value="" style="shape=tableRow;horizontal=0;startSize=0;swimlaneHead=0;swimlaneBody=0;fillColor=none;collapsible=0;dropTarget=0;points=[[0,0.5],[1,0.5]];portConstraint=eastwest;top=0;left=0;right=0;bottom=0;strokeWidth=3;fontSize=15;" vertex="1" parent="gjPDRfo1dXahzrAHLrhi-311">
          <mxGeometry y="120" width="196" height="30" as="geometry" />
        </mxCell>
        <mxCell id="gjPDRfo1dXahzrAHLrhi-340" value="FK" style="shape=partialRectangle;connectable=0;fillColor=none;top=0;left=0;bottom=0;right=0;fontStyle=0;overflow=hidden;whiteSpace=wrap;html=1;strokeWidth=3;fontSize=15;" vertex="1" parent="gjPDRfo1dXahzrAHLrhi-339">
          <mxGeometry width="30" height="30" as="geometry">
            <mxRectangle width="30" height="30" as="alternateBounds" />
          </mxGeometry>
        </mxCell>
        <mxCell id="gjPDRfo1dXahzrAHLrhi-341" value="KYC_ID_Type" style="shape=partialRectangle;connectable=0;fillColor=none;top=0;left=0;bottom=0;right=0;align=left;spacingLeft=6;fontStyle=0;overflow=hidden;whiteSpace=wrap;html=1;strokeWidth=3;fontSize=15;" vertex="1" parent="gjPDRfo1dXahzrAHLrhi-339">
          <mxGeometry x="30" width="166" height="30" as="geometry">
            <mxRectangle width="166" height="30" as="alternateBounds" />
          </mxGeometry>
        </mxCell>
        <mxCell id="gjPDRfo1dXahzrAHLrhi-321" value="" style="shape=tableRow;horizontal=0;startSize=0;swimlaneHead=0;swimlaneBody=0;fillColor=none;collapsible=0;dropTarget=0;points=[[0,0.5],[1,0.5]];portConstraint=eastwest;top=0;left=0;right=0;bottom=0;strokeWidth=3;fontSize=15;" vertex="1" parent="gjPDRfo1dXahzrAHLrhi-311">
          <mxGeometry y="150" width="196" height="30" as="geometry" />
        </mxCell>
        <mxCell id="gjPDRfo1dXahzrAHLrhi-322" value="" style="shape=partialRectangle;connectable=0;fillColor=none;top=0;left=0;bottom=0;right=0;editable=1;overflow=hidden;strokeWidth=3;fontSize=15;" vertex="1" parent="gjPDRfo1dXahzrAHLrhi-321">
          <mxGeometry width="30" height="30" as="geometry">
            <mxRectangle width="30" height="30" as="alternateBounds" />
          </mxGeometry>
        </mxCell>
        <mxCell id="gjPDRfo1dXahzrAHLrhi-323" value="KYC_ID_No" style="shape=partialRectangle;connectable=0;fillColor=none;top=0;left=0;bottom=0;right=0;align=left;spacingLeft=6;overflow=hidden;strokeWidth=3;fontSize=15;" vertex="1" parent="gjPDRfo1dXahzrAHLrhi-321">
          <mxGeometry x="30" width="166" height="30" as="geometry">
            <mxRectangle width="166" height="30" as="alternateBounds" />
          </mxGeometry>
        </mxCell>
        <mxCell id="gjPDRfo1dXahzrAHLrhi-324" value="" style="shape=tableRow;horizontal=0;startSize=0;swimlaneHead=0;swimlaneBody=0;fillColor=none;collapsible=0;dropTarget=0;points=[[0,0.5],[1,0.5]];portConstraint=eastwest;top=0;left=0;right=0;bottom=0;strokeWidth=3;fontSize=15;" vertex="1" parent="gjPDRfo1dXahzrAHLrhi-311">
          <mxGeometry y="180" width="196" height="30" as="geometry" />
        </mxCell>
        <mxCell id="gjPDRfo1dXahzrAHLrhi-325" value="" style="shape=partialRectangle;connectable=0;fillColor=none;top=0;left=0;bottom=0;right=0;editable=1;overflow=hidden;strokeWidth=3;fontSize=15;" vertex="1" parent="gjPDRfo1dXahzrAHLrhi-324">
          <mxGeometry width="30" height="30" as="geometry">
            <mxRectangle width="30" height="30" as="alternateBounds" />
          </mxGeometry>
        </mxCell>
        <mxCell id="gjPDRfo1dXahzrAHLrhi-326" value="KYC_ID_Link" style="shape=partialRectangle;connectable=0;fillColor=none;top=0;left=0;bottom=0;right=0;align=left;spacingLeft=6;overflow=hidden;strokeWidth=3;fontSize=15;" vertex="1" parent="gjPDRfo1dXahzrAHLrhi-324">
          <mxGeometry x="30" width="166" height="30" as="geometry">
            <mxRectangle width="166" height="30" as="alternateBounds" />
          </mxGeometry>
        </mxCell>
        <mxCell id="gjPDRfo1dXahzrAHLrhi-342" value="" style="shape=tableRow;horizontal=0;startSize=0;swimlaneHead=0;swimlaneBody=0;fillColor=none;collapsible=0;dropTarget=0;points=[[0,0.5],[1,0.5]];portConstraint=eastwest;top=0;left=0;right=0;bottom=0;strokeWidth=3;fontSize=15;" vertex="1" parent="gjPDRfo1dXahzrAHLrhi-311">
          <mxGeometry y="210" width="196" height="30" as="geometry" />
        </mxCell>
        <mxCell id="gjPDRfo1dXahzrAHLrhi-343" value="FK" style="shape=partialRectangle;connectable=0;fillColor=none;top=0;left=0;bottom=0;right=0;fontStyle=0;overflow=hidden;whiteSpace=wrap;html=1;strokeWidth=3;fontSize=15;" vertex="1" parent="gjPDRfo1dXahzrAHLrhi-342">
          <mxGeometry width="30" height="30" as="geometry">
            <mxRectangle width="30" height="30" as="alternateBounds" />
          </mxGeometry>
        </mxCell>
        <mxCell id="gjPDRfo1dXahzrAHLrhi-344" value="KYC_Add_Proof_Type" style="shape=partialRectangle;connectable=0;fillColor=none;top=0;left=0;bottom=0;right=0;align=left;spacingLeft=6;fontStyle=0;overflow=hidden;whiteSpace=wrap;html=1;strokeWidth=3;fontSize=15;" vertex="1" parent="gjPDRfo1dXahzrAHLrhi-342">
          <mxGeometry x="30" width="166" height="30" as="geometry">
            <mxRectangle width="166" height="30" as="alternateBounds" />
          </mxGeometry>
        </mxCell>
        <mxCell id="gjPDRfo1dXahzrAHLrhi-327" value="" style="shape=tableRow;horizontal=0;startSize=0;swimlaneHead=0;swimlaneBody=0;fillColor=none;collapsible=0;dropTarget=0;points=[[0,0.5],[1,0.5]];portConstraint=eastwest;top=0;left=0;right=0;bottom=0;strokeWidth=3;fontSize=15;" vertex="1" parent="gjPDRfo1dXahzrAHLrhi-311">
          <mxGeometry y="240" width="196" height="30" as="geometry" />
        </mxCell>
        <mxCell id="gjPDRfo1dXahzrAHLrhi-328" value="" style="shape=partialRectangle;connectable=0;fillColor=none;top=0;left=0;bottom=0;right=0;editable=1;overflow=hidden;strokeWidth=3;fontSize=15;" vertex="1" parent="gjPDRfo1dXahzrAHLrhi-327">
          <mxGeometry width="30" height="30" as="geometry">
            <mxRectangle width="30" height="30" as="alternateBounds" />
          </mxGeometry>
        </mxCell>
        <mxCell id="gjPDRfo1dXahzrAHLrhi-329" value="KYC_Add_Proof_No" style="shape=partialRectangle;connectable=0;fillColor=none;top=0;left=0;bottom=0;right=0;align=left;spacingLeft=6;overflow=hidden;strokeWidth=3;fontSize=15;" vertex="1" parent="gjPDRfo1dXahzrAHLrhi-327">
          <mxGeometry x="30" width="166" height="30" as="geometry">
            <mxRectangle width="166" height="30" as="alternateBounds" />
          </mxGeometry>
        </mxCell>
        <mxCell id="gjPDRfo1dXahzrAHLrhi-330" value="" style="shape=tableRow;horizontal=0;startSize=0;swimlaneHead=0;swimlaneBody=0;fillColor=none;collapsible=0;dropTarget=0;points=[[0,0.5],[1,0.5]];portConstraint=eastwest;top=0;left=0;right=0;bottom=0;strokeWidth=3;fontSize=15;" vertex="1" parent="gjPDRfo1dXahzrAHLrhi-311">
          <mxGeometry y="270" width="196" height="30" as="geometry" />
        </mxCell>
        <mxCell id="gjPDRfo1dXahzrAHLrhi-331" value="" style="shape=partialRectangle;connectable=0;fillColor=none;top=0;left=0;bottom=0;right=0;editable=1;overflow=hidden;strokeWidth=3;fontSize=15;" vertex="1" parent="gjPDRfo1dXahzrAHLrhi-330">
          <mxGeometry width="30" height="30" as="geometry">
            <mxRectangle width="30" height="30" as="alternateBounds" />
          </mxGeometry>
        </mxCell>
        <mxCell id="gjPDRfo1dXahzrAHLrhi-332" value="KYC_Add_Proof_Link" style="shape=partialRectangle;connectable=0;fillColor=none;top=0;left=0;bottom=0;right=0;align=left;spacingLeft=6;overflow=hidden;strokeWidth=3;fontSize=15;" vertex="1" parent="gjPDRfo1dXahzrAHLrhi-330">
          <mxGeometry x="30" width="166" height="30" as="geometry">
            <mxRectangle width="166" height="30" as="alternateBounds" />
          </mxGeometry>
        </mxCell>
        <mxCell id="gjPDRfo1dXahzrAHLrhi-333" value="" style="shape=tableRow;horizontal=0;startSize=0;swimlaneHead=0;swimlaneBody=0;fillColor=none;collapsible=0;dropTarget=0;points=[[0,0.5],[1,0.5]];portConstraint=eastwest;top=0;left=0;right=0;bottom=0;strokeWidth=3;fontSize=15;" vertex="1" parent="gjPDRfo1dXahzrAHLrhi-311">
          <mxGeometry y="300" width="196" height="30" as="geometry" />
        </mxCell>
        <mxCell id="gjPDRfo1dXahzrAHLrhi-334" value="" style="shape=partialRectangle;connectable=0;fillColor=none;top=0;left=0;bottom=0;right=0;editable=1;overflow=hidden;strokeWidth=3;fontSize=15;" vertex="1" parent="gjPDRfo1dXahzrAHLrhi-333">
          <mxGeometry width="30" height="30" as="geometry">
            <mxRectangle width="30" height="30" as="alternateBounds" />
          </mxGeometry>
        </mxCell>
        <mxCell id="gjPDRfo1dXahzrAHLrhi-335" value="Doc_Link" style="shape=partialRectangle;connectable=0;fillColor=none;top=0;left=0;bottom=0;right=0;align=left;spacingLeft=6;overflow=hidden;strokeWidth=3;fontSize=15;" vertex="1" parent="gjPDRfo1dXahzrAHLrhi-333">
          <mxGeometry x="30" width="166" height="30" as="geometry">
            <mxRectangle width="166" height="30" as="alternateBounds" />
          </mxGeometry>
        </mxCell>
        <mxCell id="gjPDRfo1dXahzrAHLrhi-336" value="" style="shape=tableRow;horizontal=0;startSize=0;swimlaneHead=0;swimlaneBody=0;fillColor=none;collapsible=0;dropTarget=0;points=[[0,0.5],[1,0.5]];portConstraint=eastwest;top=0;left=0;right=0;bottom=0;strokeWidth=3;fontSize=15;" vertex="1" parent="gjPDRfo1dXahzrAHLrhi-311">
          <mxGeometry y="330" width="196" height="30" as="geometry" />
        </mxCell>
        <mxCell id="gjPDRfo1dXahzrAHLrhi-337" value="" style="shape=partialRectangle;connectable=0;fillColor=none;top=0;left=0;bottom=0;right=0;editable=1;overflow=hidden;strokeWidth=3;fontSize=15;" vertex="1" parent="gjPDRfo1dXahzrAHLrhi-336">
          <mxGeometry width="30" height="30" as="geometry">
            <mxRectangle width="30" height="30" as="alternateBounds" />
          </mxGeometry>
        </mxCell>
        <mxCell id="gjPDRfo1dXahzrAHLrhi-338" value="Status" style="shape=partialRectangle;connectable=0;fillColor=none;top=0;left=0;bottom=0;right=0;align=left;spacingLeft=6;overflow=hidden;strokeWidth=3;fontSize=15;" vertex="1" parent="gjPDRfo1dXahzrAHLrhi-336">
          <mxGeometry x="30" width="166" height="30" as="geometry">
            <mxRectangle width="166" height="30" as="alternateBounds" />
          </mxGeometry>
        </mxCell>
        <mxCell id="gjPDRfo1dXahzrAHLrhi-345" value="Address" style="shape=table;startSize=30;container=1;collapsible=1;childLayout=tableLayout;fixedRows=1;rowLines=0;fontStyle=1;align=center;resizeLast=1;html=1;fillColor=#dae8fc;strokeColor=#6c8ebf;strokeWidth=3;fontSize=15;" vertex="1" parent="1">
          <mxGeometry x="1034" y="1240" width="190.00000000000023" height="390" as="geometry" />
        </mxCell>
        <mxCell id="gjPDRfo1dXahzrAHLrhi-346" value="" style="shape=tableRow;horizontal=0;startSize=0;swimlaneHead=0;swimlaneBody=0;fillColor=#fff2cc;collapsible=0;dropTarget=0;points=[[0,0.5],[1,0.5]];portConstraint=eastwest;top=0;left=0;right=0;bottom=1;strokeColor=#d6b656;strokeWidth=3;fontSize=15;" vertex="1" parent="gjPDRfo1dXahzrAHLrhi-345">
          <mxGeometry y="30" width="190.00000000000023" height="30" as="geometry" />
        </mxCell>
        <mxCell id="gjPDRfo1dXahzrAHLrhi-347" value="PK" style="shape=partialRectangle;connectable=0;fillColor=none;top=0;left=0;bottom=0;right=0;fontStyle=1;overflow=hidden;whiteSpace=wrap;html=1;strokeWidth=3;fontSize=15;" vertex="1" parent="gjPDRfo1dXahzrAHLrhi-346">
          <mxGeometry width="30" height="30" as="geometry">
            <mxRectangle width="30" height="30" as="alternateBounds" />
          </mxGeometry>
        </mxCell>
        <mxCell id="gjPDRfo1dXahzrAHLrhi-348" value="id" style="shape=partialRectangle;connectable=0;fillColor=none;top=0;left=0;bottom=0;right=0;align=left;spacingLeft=6;fontStyle=5;overflow=hidden;whiteSpace=wrap;html=1;strokeWidth=3;fontSize=15;" vertex="1" parent="gjPDRfo1dXahzrAHLrhi-346">
          <mxGeometry x="30" width="160.00000000000023" height="30" as="geometry">
            <mxRectangle width="160.00000000000023" height="30" as="alternateBounds" />
          </mxGeometry>
        </mxCell>
        <mxCell id="gjPDRfo1dXahzrAHLrhi-349" value="" style="shape=tableRow;horizontal=0;startSize=0;swimlaneHead=0;swimlaneBody=0;fillColor=none;collapsible=0;dropTarget=0;points=[[0,0.5],[1,0.5]];portConstraint=eastwest;top=0;left=0;right=0;bottom=0;strokeWidth=3;fontSize=15;" vertex="1" parent="gjPDRfo1dXahzrAHLrhi-345">
          <mxGeometry y="60" width="190.00000000000023" height="30" as="geometry" />
        </mxCell>
        <mxCell id="gjPDRfo1dXahzrAHLrhi-350" value="FK" style="shape=partialRectangle;connectable=0;fillColor=none;top=0;left=0;bottom=0;right=0;fontStyle=0;overflow=hidden;whiteSpace=wrap;html=1;strokeWidth=3;fontSize=15;" vertex="1" parent="gjPDRfo1dXahzrAHLrhi-349">
          <mxGeometry width="30" height="30" as="geometry">
            <mxRectangle width="30" height="30" as="alternateBounds" />
          </mxGeometry>
        </mxCell>
        <mxCell id="gjPDRfo1dXahzrAHLrhi-351" value="Actor_Type" style="shape=partialRectangle;connectable=0;fillColor=none;top=0;left=0;bottom=0;right=0;align=left;spacingLeft=6;fontStyle=0;overflow=hidden;whiteSpace=wrap;html=1;strokeWidth=3;fontSize=15;" vertex="1" parent="gjPDRfo1dXahzrAHLrhi-349">
          <mxGeometry x="30" width="160.00000000000023" height="30" as="geometry">
            <mxRectangle width="160.00000000000023" height="30" as="alternateBounds" />
          </mxGeometry>
        </mxCell>
        <mxCell id="gjPDRfo1dXahzrAHLrhi-352" value="" style="shape=tableRow;horizontal=0;startSize=0;swimlaneHead=0;swimlaneBody=0;fillColor=none;collapsible=0;dropTarget=0;points=[[0,0.5],[1,0.5]];portConstraint=eastwest;top=0;left=0;right=0;bottom=0;strokeWidth=3;fontSize=15;" vertex="1" parent="gjPDRfo1dXahzrAHLrhi-345">
          <mxGeometry y="90" width="190.00000000000023" height="30" as="geometry" />
        </mxCell>
        <mxCell id="gjPDRfo1dXahzrAHLrhi-353" value="" style="shape=partialRectangle;connectable=0;fillColor=none;top=0;left=0;bottom=0;right=0;editable=1;overflow=hidden;strokeWidth=3;fontSize=15;" vertex="1" parent="gjPDRfo1dXahzrAHLrhi-352">
          <mxGeometry width="30" height="30" as="geometry">
            <mxRectangle width="30" height="30" as="alternateBounds" />
          </mxGeometry>
        </mxCell>
        <mxCell id="gjPDRfo1dXahzrAHLrhi-354" value="Add_LIne1" style="shape=partialRectangle;connectable=0;fillColor=none;top=0;left=0;bottom=0;right=0;align=left;spacingLeft=6;overflow=hidden;strokeWidth=3;fontSize=15;" vertex="1" parent="gjPDRfo1dXahzrAHLrhi-352">
          <mxGeometry x="30" width="160.00000000000023" height="30" as="geometry">
            <mxRectangle width="160.00000000000023" height="30" as="alternateBounds" />
          </mxGeometry>
        </mxCell>
        <mxCell id="gjPDRfo1dXahzrAHLrhi-355" value="" style="shape=tableRow;horizontal=0;startSize=0;swimlaneHead=0;swimlaneBody=0;fillColor=none;collapsible=0;dropTarget=0;points=[[0,0.5],[1,0.5]];portConstraint=eastwest;top=0;left=0;right=0;bottom=0;strokeWidth=3;fontSize=15;" vertex="1" parent="gjPDRfo1dXahzrAHLrhi-345">
          <mxGeometry y="120" width="190.00000000000023" height="30" as="geometry" />
        </mxCell>
        <mxCell id="gjPDRfo1dXahzrAHLrhi-356" value="" style="shape=partialRectangle;connectable=0;fillColor=none;top=0;left=0;bottom=0;right=0;editable=1;overflow=hidden;strokeWidth=3;fontSize=15;" vertex="1" parent="gjPDRfo1dXahzrAHLrhi-355">
          <mxGeometry width="30" height="30" as="geometry">
            <mxRectangle width="30" height="30" as="alternateBounds" />
          </mxGeometry>
        </mxCell>
        <mxCell id="gjPDRfo1dXahzrAHLrhi-357" value="Add_Line2" style="shape=partialRectangle;connectable=0;fillColor=none;top=0;left=0;bottom=0;right=0;align=left;spacingLeft=6;overflow=hidden;strokeWidth=3;fontSize=15;" vertex="1" parent="gjPDRfo1dXahzrAHLrhi-355">
          <mxGeometry x="30" width="160.00000000000023" height="30" as="geometry">
            <mxRectangle width="160.00000000000023" height="30" as="alternateBounds" />
          </mxGeometry>
        </mxCell>
        <mxCell id="gjPDRfo1dXahzrAHLrhi-358" value="" style="shape=tableRow;horizontal=0;startSize=0;swimlaneHead=0;swimlaneBody=0;fillColor=none;collapsible=0;dropTarget=0;points=[[0,0.5],[1,0.5]];portConstraint=eastwest;top=0;left=0;right=0;bottom=0;strokeWidth=3;fontSize=15;" vertex="1" parent="gjPDRfo1dXahzrAHLrhi-345">
          <mxGeometry y="150" width="190.00000000000023" height="30" as="geometry" />
        </mxCell>
        <mxCell id="gjPDRfo1dXahzrAHLrhi-359" value="" style="shape=partialRectangle;connectable=0;fillColor=none;top=0;left=0;bottom=0;right=0;editable=1;overflow=hidden;strokeWidth=3;fontSize=15;" vertex="1" parent="gjPDRfo1dXahzrAHLrhi-358">
          <mxGeometry width="30" height="30" as="geometry">
            <mxRectangle width="30" height="30" as="alternateBounds" />
          </mxGeometry>
        </mxCell>
        <mxCell id="gjPDRfo1dXahzrAHLrhi-360" value="City" style="shape=partialRectangle;connectable=0;fillColor=none;top=0;left=0;bottom=0;right=0;align=left;spacingLeft=6;overflow=hidden;strokeWidth=3;fontSize=15;" vertex="1" parent="gjPDRfo1dXahzrAHLrhi-358">
          <mxGeometry x="30" width="160.00000000000023" height="30" as="geometry">
            <mxRectangle width="160.00000000000023" height="30" as="alternateBounds" />
          </mxGeometry>
        </mxCell>
        <mxCell id="gjPDRfo1dXahzrAHLrhi-361" value="" style="shape=tableRow;horizontal=0;startSize=0;swimlaneHead=0;swimlaneBody=0;fillColor=none;collapsible=0;dropTarget=0;points=[[0,0.5],[1,0.5]];portConstraint=eastwest;top=0;left=0;right=0;bottom=0;strokeWidth=3;fontSize=15;" vertex="1" parent="gjPDRfo1dXahzrAHLrhi-345">
          <mxGeometry y="180" width="190.00000000000023" height="30" as="geometry" />
        </mxCell>
        <mxCell id="gjPDRfo1dXahzrAHLrhi-362" value="" style="shape=partialRectangle;connectable=0;fillColor=none;top=0;left=0;bottom=0;right=0;editable=1;overflow=hidden;strokeWidth=3;fontSize=15;" vertex="1" parent="gjPDRfo1dXahzrAHLrhi-361">
          <mxGeometry width="30" height="30" as="geometry">
            <mxRectangle width="30" height="30" as="alternateBounds" />
          </mxGeometry>
        </mxCell>
        <mxCell id="gjPDRfo1dXahzrAHLrhi-363" value="Taluka" style="shape=partialRectangle;connectable=0;fillColor=none;top=0;left=0;bottom=0;right=0;align=left;spacingLeft=6;overflow=hidden;strokeWidth=3;fontSize=15;" vertex="1" parent="gjPDRfo1dXahzrAHLrhi-361">
          <mxGeometry x="30" width="160.00000000000023" height="30" as="geometry">
            <mxRectangle width="160.00000000000023" height="30" as="alternateBounds" />
          </mxGeometry>
        </mxCell>
        <mxCell id="gjPDRfo1dXahzrAHLrhi-364" value="" style="shape=tableRow;horizontal=0;startSize=0;swimlaneHead=0;swimlaneBody=0;fillColor=none;collapsible=0;dropTarget=0;points=[[0,0.5],[1,0.5]];portConstraint=eastwest;top=0;left=0;right=0;bottom=0;strokeWidth=3;fontSize=15;" vertex="1" parent="gjPDRfo1dXahzrAHLrhi-345">
          <mxGeometry y="210" width="190.00000000000023" height="30" as="geometry" />
        </mxCell>
        <mxCell id="gjPDRfo1dXahzrAHLrhi-365" value="" style="shape=partialRectangle;connectable=0;fillColor=none;top=0;left=0;bottom=0;right=0;editable=1;overflow=hidden;strokeWidth=3;fontSize=15;" vertex="1" parent="gjPDRfo1dXahzrAHLrhi-364">
          <mxGeometry width="30" height="30" as="geometry">
            <mxRectangle width="30" height="30" as="alternateBounds" />
          </mxGeometry>
        </mxCell>
        <mxCell id="gjPDRfo1dXahzrAHLrhi-366" value="Pincode" style="shape=partialRectangle;connectable=0;fillColor=none;top=0;left=0;bottom=0;right=0;align=left;spacingLeft=6;overflow=hidden;strokeWidth=3;fontSize=15;" vertex="1" parent="gjPDRfo1dXahzrAHLrhi-364">
          <mxGeometry x="30" width="160.00000000000023" height="30" as="geometry">
            <mxRectangle width="160.00000000000023" height="30" as="alternateBounds" />
          </mxGeometry>
        </mxCell>
        <mxCell id="gjPDRfo1dXahzrAHLrhi-373" value="" style="shape=tableRow;horizontal=0;startSize=0;swimlaneHead=0;swimlaneBody=0;fillColor=none;collapsible=0;dropTarget=0;points=[[0,0.5],[1,0.5]];portConstraint=eastwest;top=0;left=0;right=0;bottom=0;strokeWidth=3;fontSize=15;" vertex="1" parent="gjPDRfo1dXahzrAHLrhi-345">
          <mxGeometry y="240" width="190.00000000000023" height="30" as="geometry" />
        </mxCell>
        <mxCell id="gjPDRfo1dXahzrAHLrhi-374" value="FK" style="shape=partialRectangle;connectable=0;fillColor=none;top=0;left=0;bottom=0;right=0;fontStyle=0;overflow=hidden;whiteSpace=wrap;html=1;strokeWidth=3;fontSize=15;" vertex="1" parent="gjPDRfo1dXahzrAHLrhi-373">
          <mxGeometry width="30" height="30" as="geometry">
            <mxRectangle width="30" height="30" as="alternateBounds" />
          </mxGeometry>
        </mxCell>
        <mxCell id="gjPDRfo1dXahzrAHLrhi-375" value="Add_Dist" style="shape=partialRectangle;connectable=0;fillColor=none;top=0;left=0;bottom=0;right=0;align=left;spacingLeft=6;fontStyle=0;overflow=hidden;whiteSpace=wrap;html=1;strokeWidth=3;fontSize=15;" vertex="1" parent="gjPDRfo1dXahzrAHLrhi-373">
          <mxGeometry x="30" width="160.00000000000023" height="30" as="geometry">
            <mxRectangle width="160.00000000000023" height="30" as="alternateBounds" />
          </mxGeometry>
        </mxCell>
        <mxCell id="gjPDRfo1dXahzrAHLrhi-376" value="" style="shape=tableRow;horizontal=0;startSize=0;swimlaneHead=0;swimlaneBody=0;fillColor=none;collapsible=0;dropTarget=0;points=[[0,0.5],[1,0.5]];portConstraint=eastwest;top=0;left=0;right=0;bottom=0;strokeWidth=3;fontSize=15;" vertex="1" parent="gjPDRfo1dXahzrAHLrhi-345">
          <mxGeometry y="270" width="190.00000000000023" height="30" as="geometry" />
        </mxCell>
        <mxCell id="gjPDRfo1dXahzrAHLrhi-377" value="FK" style="shape=partialRectangle;connectable=0;fillColor=none;top=0;left=0;bottom=0;right=0;fontStyle=0;overflow=hidden;whiteSpace=wrap;html=1;strokeWidth=3;fontSize=15;" vertex="1" parent="gjPDRfo1dXahzrAHLrhi-376">
          <mxGeometry width="30" height="30" as="geometry">
            <mxRectangle width="30" height="30" as="alternateBounds" />
          </mxGeometry>
        </mxCell>
        <mxCell id="gjPDRfo1dXahzrAHLrhi-378" value="Add_Zone" style="shape=partialRectangle;connectable=0;fillColor=none;top=0;left=0;bottom=0;right=0;align=left;spacingLeft=6;fontStyle=0;overflow=hidden;whiteSpace=wrap;html=1;strokeWidth=3;fontSize=15;" vertex="1" parent="gjPDRfo1dXahzrAHLrhi-376">
          <mxGeometry x="30" width="160.00000000000023" height="30" as="geometry">
            <mxRectangle width="160.00000000000023" height="30" as="alternateBounds" />
          </mxGeometry>
        </mxCell>
        <mxCell id="gjPDRfo1dXahzrAHLrhi-379" value="" style="shape=tableRow;horizontal=0;startSize=0;swimlaneHead=0;swimlaneBody=0;fillColor=none;collapsible=0;dropTarget=0;points=[[0,0.5],[1,0.5]];portConstraint=eastwest;top=0;left=0;right=0;bottom=0;strokeWidth=3;fontSize=15;" vertex="1" parent="gjPDRfo1dXahzrAHLrhi-345">
          <mxGeometry y="300" width="190.00000000000023" height="30" as="geometry" />
        </mxCell>
        <mxCell id="gjPDRfo1dXahzrAHLrhi-380" value="FK" style="shape=partialRectangle;connectable=0;fillColor=none;top=0;left=0;bottom=0;right=0;fontStyle=0;overflow=hidden;whiteSpace=wrap;html=1;strokeWidth=3;fontSize=15;" vertex="1" parent="gjPDRfo1dXahzrAHLrhi-379">
          <mxGeometry width="30" height="30" as="geometry">
            <mxRectangle width="30" height="30" as="alternateBounds" />
          </mxGeometry>
        </mxCell>
        <mxCell id="gjPDRfo1dXahzrAHLrhi-381" value="Add_State" style="shape=partialRectangle;connectable=0;fillColor=none;top=0;left=0;bottom=0;right=0;align=left;spacingLeft=6;fontStyle=0;overflow=hidden;whiteSpace=wrap;html=1;strokeWidth=3;fontSize=15;" vertex="1" parent="gjPDRfo1dXahzrAHLrhi-379">
          <mxGeometry x="30" width="160.00000000000023" height="30" as="geometry">
            <mxRectangle width="160.00000000000023" height="30" as="alternateBounds" />
          </mxGeometry>
        </mxCell>
        <mxCell id="gjPDRfo1dXahzrAHLrhi-382" value="" style="shape=tableRow;horizontal=0;startSize=0;swimlaneHead=0;swimlaneBody=0;fillColor=none;collapsible=0;dropTarget=0;points=[[0,0.5],[1,0.5]];portConstraint=eastwest;top=0;left=0;right=0;bottom=0;strokeWidth=3;fontSize=15;" vertex="1" parent="gjPDRfo1dXahzrAHLrhi-345">
          <mxGeometry y="330" width="190.00000000000023" height="30" as="geometry" />
        </mxCell>
        <mxCell id="gjPDRfo1dXahzrAHLrhi-383" value="FK" style="shape=partialRectangle;connectable=0;fillColor=none;top=0;left=0;bottom=0;right=0;fontStyle=0;overflow=hidden;whiteSpace=wrap;html=1;strokeWidth=3;fontSize=15;" vertex="1" parent="gjPDRfo1dXahzrAHLrhi-382">
          <mxGeometry width="30" height="30" as="geometry">
            <mxRectangle width="30" height="30" as="alternateBounds" />
          </mxGeometry>
        </mxCell>
        <mxCell id="gjPDRfo1dXahzrAHLrhi-384" value="Add_Country" style="shape=partialRectangle;connectable=0;fillColor=none;top=0;left=0;bottom=0;right=0;align=left;spacingLeft=6;fontStyle=0;overflow=hidden;whiteSpace=wrap;html=1;strokeWidth=3;fontSize=15;" vertex="1" parent="gjPDRfo1dXahzrAHLrhi-382">
          <mxGeometry x="30" width="160.00000000000023" height="30" as="geometry">
            <mxRectangle width="160.00000000000023" height="30" as="alternateBounds" />
          </mxGeometry>
        </mxCell>
        <mxCell id="gjPDRfo1dXahzrAHLrhi-370" value="" style="shape=tableRow;horizontal=0;startSize=0;swimlaneHead=0;swimlaneBody=0;fillColor=none;collapsible=0;dropTarget=0;points=[[0,0.5],[1,0.5]];portConstraint=eastwest;top=0;left=0;right=0;bottom=0;strokeWidth=3;fontSize=15;" vertex="1" parent="gjPDRfo1dXahzrAHLrhi-345">
          <mxGeometry y="360" width="190.00000000000023" height="30" as="geometry" />
        </mxCell>
        <mxCell id="gjPDRfo1dXahzrAHLrhi-371" value="" style="shape=partialRectangle;connectable=0;fillColor=none;top=0;left=0;bottom=0;right=0;editable=1;overflow=hidden;strokeWidth=3;fontSize=15;" vertex="1" parent="gjPDRfo1dXahzrAHLrhi-370">
          <mxGeometry width="30" height="30" as="geometry">
            <mxRectangle width="30" height="30" as="alternateBounds" />
          </mxGeometry>
        </mxCell>
        <mxCell id="gjPDRfo1dXahzrAHLrhi-372" value="Status" style="shape=partialRectangle;connectable=0;fillColor=none;top=0;left=0;bottom=0;right=0;align=left;spacingLeft=6;overflow=hidden;strokeWidth=3;fontSize=15;" vertex="1" parent="gjPDRfo1dXahzrAHLrhi-370">
          <mxGeometry x="30" width="160.00000000000023" height="30" as="geometry">
            <mxRectangle width="160.00000000000023" height="30" as="alternateBounds" />
          </mxGeometry>
        </mxCell>
        <mxCell id="gjPDRfo1dXahzrAHLrhi-385" value="" style="endArrow=none;html=1;rounded=0;entryX=0.206;entryY=1.044;entryDx=0;entryDy=0;entryPerimeter=0;exitX=0.212;exitY=-0.007;exitDx=0;exitDy=0;exitPerimeter=0;strokeWidth=3;fontSize=15;" edge="1" parent="1" source="gjPDRfo1dXahzrAHLrhi-277" target="gjPDRfo1dXahzrAHLrhi-124">
          <mxGeometry relative="1" as="geometry">
            <mxPoint x="130" y="1170" as="sourcePoint" />
            <mxPoint x="290" y="1170" as="targetPoint" />
            <Array as="points">
              <mxPoint x="194" y="1160" />
              <mxPoint x="397" y="1160" />
            </Array>
          </mxGeometry>
        </mxCell>
        <mxCell id="gjPDRfo1dXahzrAHLrhi-388" value="" style="endArrow=none;html=1;rounded=0;entryX=0.389;entryY=1;entryDx=0;entryDy=0;entryPerimeter=0;exitX=0.25;exitY=0;exitDx=0;exitDy=0;strokeWidth=3;fontSize=15;" edge="1" parent="1" source="gjPDRfo1dXahzrAHLrhi-311" target="gjPDRfo1dXahzrAHLrhi-124">
          <mxGeometry relative="1" as="geometry">
            <mxPoint x="260" y="1100" as="sourcePoint" />
            <mxPoint x="420" y="1100" as="targetPoint" />
            <Array as="points">
              <mxPoint x="633" y="1180" />
              <mxPoint x="430" y="1180" />
            </Array>
          </mxGeometry>
        </mxCell>
        <mxCell id="gjPDRfo1dXahzrAHLrhi-389" value="" style="endArrow=none;html=1;rounded=0;entryX=0.324;entryY=1.044;entryDx=0;entryDy=0;entryPerimeter=0;exitX=0.412;exitY=-0.011;exitDx=0;exitDy=0;exitPerimeter=0;strokeWidth=3;fontSize=15;" edge="1" parent="1" source="gjPDRfo1dXahzrAHLrhi-277" target="gjPDRfo1dXahzrAHLrhi-179">
          <mxGeometry relative="1" as="geometry">
            <mxPoint x="410" y="1100" as="sourcePoint" />
            <mxPoint x="570" y="1100" as="targetPoint" />
            <Array as="points">
              <mxPoint x="232" y="1200" />
              <mxPoint x="640" y="1200" />
            </Array>
          </mxGeometry>
        </mxCell>
        <mxCell id="gjPDRfo1dXahzrAHLrhi-390" value="" style="endArrow=none;html=1;rounded=0;entryX=0.514;entryY=1.05;entryDx=0;entryDy=0;entryPerimeter=0;exitX=0.459;exitY=0;exitDx=0;exitDy=0;strokeWidth=3;fontSize=15;exitPerimeter=0;" edge="1" parent="1" source="gjPDRfo1dXahzrAHLrhi-311" target="gjPDRfo1dXahzrAHLrhi-179">
          <mxGeometry relative="1" as="geometry">
            <mxPoint x="410" y="1100" as="sourcePoint" />
            <mxPoint x="570" y="1100" as="targetPoint" />
            <Array as="points">
              <mxPoint x="674" y="1190" />
            </Array>
          </mxGeometry>
        </mxCell>
        <mxCell id="gjPDRfo1dXahzrAHLrhi-393" value="" style="endArrow=none;html=1;rounded=0;entryX=0.672;entryY=1.121;entryDx=0;entryDy=0;entryPerimeter=0;exitX=0.75;exitY=0;exitDx=0;exitDy=0;strokeWidth=3;fontSize=15;" edge="1" parent="1" source="gjPDRfo1dXahzrAHLrhi-345" target="gjPDRfo1dXahzrAHLrhi-207">
          <mxGeometry relative="1" as="geometry">
            <mxPoint x="810" y="1050" as="sourcePoint" />
            <mxPoint x="920" y="820" as="targetPoint" />
            <Array as="points">
              <mxPoint x="1177" y="980" />
              <mxPoint x="921" y="980" />
            </Array>
          </mxGeometry>
        </mxCell>
        <mxCell id="gjPDRfo1dXahzrAHLrhi-394" value="KYC_ID_Type" style="shape=table;startSize=30;container=1;collapsible=1;childLayout=tableLayout;fixedRows=1;rowLines=0;fontStyle=1;align=center;resizeLast=1;html=1;fillColor=#dae8fc;strokeColor=#6c8ebf;strokeWidth=3;fontSize=15;" vertex="1" parent="1">
          <mxGeometry x="460" y="1680" width="180" height="90" as="geometry" />
        </mxCell>
        <mxCell id="gjPDRfo1dXahzrAHLrhi-395" value="" style="shape=tableRow;horizontal=0;startSize=0;swimlaneHead=0;swimlaneBody=0;fillColor=#fff2cc;collapsible=0;dropTarget=0;points=[[0,0.5],[1,0.5]];portConstraint=eastwest;top=0;left=0;right=0;bottom=1;strokeColor=#d6b656;strokeWidth=3;fontSize=15;" vertex="1" parent="gjPDRfo1dXahzrAHLrhi-394">
          <mxGeometry y="30" width="180" height="30" as="geometry" />
        </mxCell>
        <mxCell id="gjPDRfo1dXahzrAHLrhi-396" value="PK" style="shape=partialRectangle;connectable=0;fillColor=none;top=0;left=0;bottom=0;right=0;fontStyle=1;overflow=hidden;whiteSpace=wrap;html=1;strokeWidth=3;fontSize=15;" vertex="1" parent="gjPDRfo1dXahzrAHLrhi-395">
          <mxGeometry width="30" height="30" as="geometry">
            <mxRectangle width="30" height="30" as="alternateBounds" />
          </mxGeometry>
        </mxCell>
        <mxCell id="gjPDRfo1dXahzrAHLrhi-397" value="id" style="shape=partialRectangle;connectable=0;fillColor=none;top=0;left=0;bottom=0;right=0;align=left;spacingLeft=6;fontStyle=5;overflow=hidden;whiteSpace=wrap;html=1;strokeWidth=3;fontSize=15;" vertex="1" parent="gjPDRfo1dXahzrAHLrhi-395">
          <mxGeometry x="30" width="150" height="30" as="geometry">
            <mxRectangle width="150" height="30" as="alternateBounds" />
          </mxGeometry>
        </mxCell>
        <mxCell id="gjPDRfo1dXahzrAHLrhi-398" value="" style="shape=tableRow;horizontal=0;startSize=0;swimlaneHead=0;swimlaneBody=0;fillColor=none;collapsible=0;dropTarget=0;points=[[0,0.5],[1,0.5]];portConstraint=eastwest;top=0;left=0;right=0;bottom=0;strokeWidth=3;fontSize=15;" vertex="1" parent="gjPDRfo1dXahzrAHLrhi-394">
          <mxGeometry y="60" width="180" height="30" as="geometry" />
        </mxCell>
        <mxCell id="gjPDRfo1dXahzrAHLrhi-399" value="" style="shape=partialRectangle;connectable=0;fillColor=none;top=0;left=0;bottom=0;right=0;editable=1;overflow=hidden;strokeWidth=3;fontSize=15;" vertex="1" parent="gjPDRfo1dXahzrAHLrhi-398">
          <mxGeometry width="30" height="30" as="geometry">
            <mxRectangle width="30" height="30" as="alternateBounds" />
          </mxGeometry>
        </mxCell>
        <mxCell id="gjPDRfo1dXahzrAHLrhi-400" value="Description" style="shape=partialRectangle;connectable=0;fillColor=none;top=0;left=0;bottom=0;right=0;align=left;spacingLeft=6;overflow=hidden;strokeWidth=3;fontSize=15;" vertex="1" parent="gjPDRfo1dXahzrAHLrhi-398">
          <mxGeometry x="30" width="150" height="30" as="geometry">
            <mxRectangle width="150" height="30" as="alternateBounds" />
          </mxGeometry>
        </mxCell>
        <mxCell id="gjPDRfo1dXahzrAHLrhi-404" value="KYC_Add_Proof_Type" style="shape=table;startSize=30;container=1;collapsible=1;childLayout=tableLayout;fixedRows=1;rowLines=0;fontStyle=1;align=center;resizeLast=1;html=1;fillColor=#dae8fc;strokeColor=#6c8ebf;strokeWidth=3;fontSize=15;" vertex="1" parent="1">
          <mxGeometry x="720" y="1680" width="180" height="90" as="geometry" />
        </mxCell>
        <mxCell id="gjPDRfo1dXahzrAHLrhi-405" value="" style="shape=tableRow;horizontal=0;startSize=0;swimlaneHead=0;swimlaneBody=0;fillColor=#fff2cc;collapsible=0;dropTarget=0;points=[[0,0.5],[1,0.5]];portConstraint=eastwest;top=0;left=0;right=0;bottom=1;strokeColor=#d6b656;strokeWidth=3;fontSize=15;" vertex="1" parent="gjPDRfo1dXahzrAHLrhi-404">
          <mxGeometry y="30" width="180" height="30" as="geometry" />
        </mxCell>
        <mxCell id="gjPDRfo1dXahzrAHLrhi-406" value="PK" style="shape=partialRectangle;connectable=0;fillColor=none;top=0;left=0;bottom=0;right=0;fontStyle=1;overflow=hidden;whiteSpace=wrap;html=1;strokeWidth=3;fontSize=15;" vertex="1" parent="gjPDRfo1dXahzrAHLrhi-405">
          <mxGeometry width="30" height="30" as="geometry">
            <mxRectangle width="30" height="30" as="alternateBounds" />
          </mxGeometry>
        </mxCell>
        <mxCell id="gjPDRfo1dXahzrAHLrhi-407" value="id" style="shape=partialRectangle;connectable=0;fillColor=none;top=0;left=0;bottom=0;right=0;align=left;spacingLeft=6;fontStyle=5;overflow=hidden;whiteSpace=wrap;html=1;strokeWidth=3;fontSize=15;" vertex="1" parent="gjPDRfo1dXahzrAHLrhi-405">
          <mxGeometry x="30" width="150" height="30" as="geometry">
            <mxRectangle width="150" height="30" as="alternateBounds" />
          </mxGeometry>
        </mxCell>
        <mxCell id="gjPDRfo1dXahzrAHLrhi-408" value="" style="shape=tableRow;horizontal=0;startSize=0;swimlaneHead=0;swimlaneBody=0;fillColor=none;collapsible=0;dropTarget=0;points=[[0,0.5],[1,0.5]];portConstraint=eastwest;top=0;left=0;right=0;bottom=0;strokeWidth=3;fontSize=15;" vertex="1" parent="gjPDRfo1dXahzrAHLrhi-404">
          <mxGeometry y="60" width="180" height="30" as="geometry" />
        </mxCell>
        <mxCell id="gjPDRfo1dXahzrAHLrhi-409" value="" style="shape=partialRectangle;connectable=0;fillColor=none;top=0;left=0;bottom=0;right=0;editable=1;overflow=hidden;strokeWidth=3;fontSize=15;" vertex="1" parent="gjPDRfo1dXahzrAHLrhi-408">
          <mxGeometry width="30" height="30" as="geometry">
            <mxRectangle width="30" height="30" as="alternateBounds" />
          </mxGeometry>
        </mxCell>
        <mxCell id="gjPDRfo1dXahzrAHLrhi-410" value="Description" style="shape=partialRectangle;connectable=0;fillColor=none;top=0;left=0;bottom=0;right=0;align=left;spacingLeft=6;overflow=hidden;strokeWidth=3;fontSize=15;" vertex="1" parent="gjPDRfo1dXahzrAHLrhi-408">
          <mxGeometry x="30" width="150" height="30" as="geometry">
            <mxRectangle width="150" height="30" as="alternateBounds" />
          </mxGeometry>
        </mxCell>
        <mxCell id="gjPDRfo1dXahzrAHLrhi-411" value="Add_Country" style="shape=table;startSize=30;container=1;collapsible=1;childLayout=tableLayout;fixedRows=1;rowLines=0;fontStyle=1;align=center;resizeLast=1;html=1;fillColor=#dae8fc;strokeColor=#6c8ebf;strokeWidth=3;fontSize=15;" vertex="1" parent="1">
          <mxGeometry x="1280" y="1280" width="180" height="90" as="geometry" />
        </mxCell>
        <mxCell id="gjPDRfo1dXahzrAHLrhi-412" value="" style="shape=tableRow;horizontal=0;startSize=0;swimlaneHead=0;swimlaneBody=0;fillColor=#fff2cc;collapsible=0;dropTarget=0;points=[[0,0.5],[1,0.5]];portConstraint=eastwest;top=0;left=0;right=0;bottom=1;strokeColor=#d6b656;strokeWidth=3;fontSize=15;" vertex="1" parent="gjPDRfo1dXahzrAHLrhi-411">
          <mxGeometry y="30" width="180" height="30" as="geometry" />
        </mxCell>
        <mxCell id="gjPDRfo1dXahzrAHLrhi-413" value="PK" style="shape=partialRectangle;connectable=0;fillColor=none;top=0;left=0;bottom=0;right=0;fontStyle=1;overflow=hidden;whiteSpace=wrap;html=1;strokeWidth=3;fontSize=15;" vertex="1" parent="gjPDRfo1dXahzrAHLrhi-412">
          <mxGeometry width="30" height="30" as="geometry">
            <mxRectangle width="30" height="30" as="alternateBounds" />
          </mxGeometry>
        </mxCell>
        <mxCell id="gjPDRfo1dXahzrAHLrhi-414" value="id" style="shape=partialRectangle;connectable=0;fillColor=none;top=0;left=0;bottom=0;right=0;align=left;spacingLeft=6;fontStyle=5;overflow=hidden;whiteSpace=wrap;html=1;strokeWidth=3;fontSize=15;" vertex="1" parent="gjPDRfo1dXahzrAHLrhi-412">
          <mxGeometry x="30" width="150" height="30" as="geometry">
            <mxRectangle width="150" height="30" as="alternateBounds" />
          </mxGeometry>
        </mxCell>
        <mxCell id="gjPDRfo1dXahzrAHLrhi-415" value="" style="shape=tableRow;horizontal=0;startSize=0;swimlaneHead=0;swimlaneBody=0;fillColor=none;collapsible=0;dropTarget=0;points=[[0,0.5],[1,0.5]];portConstraint=eastwest;top=0;left=0;right=0;bottom=0;strokeWidth=3;fontSize=15;" vertex="1" parent="gjPDRfo1dXahzrAHLrhi-411">
          <mxGeometry y="60" width="180" height="30" as="geometry" />
        </mxCell>
        <mxCell id="gjPDRfo1dXahzrAHLrhi-416" value="" style="shape=partialRectangle;connectable=0;fillColor=none;top=0;left=0;bottom=0;right=0;editable=1;overflow=hidden;strokeWidth=3;fontSize=15;" vertex="1" parent="gjPDRfo1dXahzrAHLrhi-415">
          <mxGeometry width="30" height="30" as="geometry">
            <mxRectangle width="30" height="30" as="alternateBounds" />
          </mxGeometry>
        </mxCell>
        <mxCell id="gjPDRfo1dXahzrAHLrhi-417" value="Name" style="shape=partialRectangle;connectable=0;fillColor=none;top=0;left=0;bottom=0;right=0;align=left;spacingLeft=6;overflow=hidden;strokeWidth=3;fontSize=15;" vertex="1" parent="gjPDRfo1dXahzrAHLrhi-415">
          <mxGeometry x="30" width="150" height="30" as="geometry">
            <mxRectangle width="150" height="30" as="alternateBounds" />
          </mxGeometry>
        </mxCell>
        <mxCell id="gjPDRfo1dXahzrAHLrhi-418" value="Add_State" style="shape=table;startSize=30;container=1;collapsible=1;childLayout=tableLayout;fixedRows=1;rowLines=0;fontStyle=1;align=center;resizeLast=1;html=1;fillColor=#dae8fc;strokeColor=#6c8ebf;strokeWidth=3;fontSize=15;" vertex="1" parent="1">
          <mxGeometry x="1280" y="1440" width="180" height="120" as="geometry" />
        </mxCell>
        <mxCell id="gjPDRfo1dXahzrAHLrhi-419" value="" style="shape=tableRow;horizontal=0;startSize=0;swimlaneHead=0;swimlaneBody=0;fillColor=#fff2cc;collapsible=0;dropTarget=0;points=[[0,0.5],[1,0.5]];portConstraint=eastwest;top=0;left=0;right=0;bottom=1;strokeColor=#d6b656;strokeWidth=3;fontSize=15;" vertex="1" parent="gjPDRfo1dXahzrAHLrhi-418">
          <mxGeometry y="30" width="180" height="30" as="geometry" />
        </mxCell>
        <mxCell id="gjPDRfo1dXahzrAHLrhi-420" value="PK" style="shape=partialRectangle;connectable=0;fillColor=none;top=0;left=0;bottom=0;right=0;fontStyle=1;overflow=hidden;whiteSpace=wrap;html=1;strokeWidth=3;fontSize=15;" vertex="1" parent="gjPDRfo1dXahzrAHLrhi-419">
          <mxGeometry width="30" height="30" as="geometry">
            <mxRectangle width="30" height="30" as="alternateBounds" />
          </mxGeometry>
        </mxCell>
        <mxCell id="gjPDRfo1dXahzrAHLrhi-421" value="id" style="shape=partialRectangle;connectable=0;fillColor=none;top=0;left=0;bottom=0;right=0;align=left;spacingLeft=6;fontStyle=5;overflow=hidden;whiteSpace=wrap;html=1;strokeWidth=3;fontSize=15;" vertex="1" parent="gjPDRfo1dXahzrAHLrhi-419">
          <mxGeometry x="30" width="150" height="30" as="geometry">
            <mxRectangle width="150" height="30" as="alternateBounds" />
          </mxGeometry>
        </mxCell>
        <mxCell id="gjPDRfo1dXahzrAHLrhi-422" value="" style="shape=tableRow;horizontal=0;startSize=0;swimlaneHead=0;swimlaneBody=0;fillColor=none;collapsible=0;dropTarget=0;points=[[0,0.5],[1,0.5]];portConstraint=eastwest;top=0;left=0;right=0;bottom=0;strokeWidth=3;fontSize=15;" vertex="1" parent="gjPDRfo1dXahzrAHLrhi-418">
          <mxGeometry y="60" width="180" height="30" as="geometry" />
        </mxCell>
        <mxCell id="gjPDRfo1dXahzrAHLrhi-423" value="" style="shape=partialRectangle;connectable=0;fillColor=none;top=0;left=0;bottom=0;right=0;editable=1;overflow=hidden;strokeWidth=3;fontSize=15;" vertex="1" parent="gjPDRfo1dXahzrAHLrhi-422">
          <mxGeometry width="30" height="30" as="geometry">
            <mxRectangle width="30" height="30" as="alternateBounds" />
          </mxGeometry>
        </mxCell>
        <mxCell id="gjPDRfo1dXahzrAHLrhi-424" value="Name" style="shape=partialRectangle;connectable=0;fillColor=none;top=0;left=0;bottom=0;right=0;align=left;spacingLeft=6;overflow=hidden;strokeWidth=3;fontSize=15;" vertex="1" parent="gjPDRfo1dXahzrAHLrhi-422">
          <mxGeometry x="30" width="150" height="30" as="geometry">
            <mxRectangle width="150" height="30" as="alternateBounds" />
          </mxGeometry>
        </mxCell>
        <mxCell id="gjPDRfo1dXahzrAHLrhi-425" value="" style="shape=tableRow;horizontal=0;startSize=0;swimlaneHead=0;swimlaneBody=0;fillColor=none;collapsible=0;dropTarget=0;points=[[0,0.5],[1,0.5]];portConstraint=eastwest;top=0;left=0;right=0;bottom=0;strokeWidth=3;fontSize=15;" vertex="1" parent="gjPDRfo1dXahzrAHLrhi-418">
          <mxGeometry y="90" width="180" height="30" as="geometry" />
        </mxCell>
        <mxCell id="gjPDRfo1dXahzrAHLrhi-426" value="FK" style="shape=partialRectangle;connectable=0;fillColor=none;top=0;left=0;bottom=0;right=0;fontStyle=0;overflow=hidden;whiteSpace=wrap;html=1;strokeWidth=3;fontSize=15;" vertex="1" parent="gjPDRfo1dXahzrAHLrhi-425">
          <mxGeometry width="30" height="30" as="geometry">
            <mxRectangle width="30" height="30" as="alternateBounds" />
          </mxGeometry>
        </mxCell>
        <mxCell id="gjPDRfo1dXahzrAHLrhi-427" value="Add_Country" style="shape=partialRectangle;connectable=0;fillColor=none;top=0;left=0;bottom=0;right=0;align=left;spacingLeft=6;fontStyle=0;overflow=hidden;whiteSpace=wrap;html=1;strokeWidth=3;fontSize=15;" vertex="1" parent="gjPDRfo1dXahzrAHLrhi-425">
          <mxGeometry x="30" width="150" height="30" as="geometry">
            <mxRectangle width="150" height="30" as="alternateBounds" />
          </mxGeometry>
        </mxCell>
        <mxCell id="gjPDRfo1dXahzrAHLrhi-428" value="Add_Zone" style="shape=table;startSize=30;container=1;collapsible=1;childLayout=tableLayout;fixedRows=1;rowLines=0;fontStyle=1;align=center;resizeLast=1;html=1;fillColor=#dae8fc;strokeColor=#6c8ebf;strokeWidth=3;fontSize=15;" vertex="1" parent="1">
          <mxGeometry x="1280" y="1600" width="180" height="120" as="geometry" />
        </mxCell>
        <mxCell id="gjPDRfo1dXahzrAHLrhi-429" value="" style="shape=tableRow;horizontal=0;startSize=0;swimlaneHead=0;swimlaneBody=0;fillColor=#fff2cc;collapsible=0;dropTarget=0;points=[[0,0.5],[1,0.5]];portConstraint=eastwest;top=0;left=0;right=0;bottom=1;strokeColor=#d6b656;strokeWidth=3;fontSize=15;" vertex="1" parent="gjPDRfo1dXahzrAHLrhi-428">
          <mxGeometry y="30" width="180" height="30" as="geometry" />
        </mxCell>
        <mxCell id="gjPDRfo1dXahzrAHLrhi-430" value="PK" style="shape=partialRectangle;connectable=0;fillColor=none;top=0;left=0;bottom=0;right=0;fontStyle=1;overflow=hidden;whiteSpace=wrap;html=1;strokeWidth=3;fontSize=15;" vertex="1" parent="gjPDRfo1dXahzrAHLrhi-429">
          <mxGeometry width="30" height="30" as="geometry">
            <mxRectangle width="30" height="30" as="alternateBounds" />
          </mxGeometry>
        </mxCell>
        <mxCell id="gjPDRfo1dXahzrAHLrhi-431" value="id" style="shape=partialRectangle;connectable=0;fillColor=none;top=0;left=0;bottom=0;right=0;align=left;spacingLeft=6;fontStyle=5;overflow=hidden;whiteSpace=wrap;html=1;strokeWidth=3;fontSize=15;" vertex="1" parent="gjPDRfo1dXahzrAHLrhi-429">
          <mxGeometry x="30" width="150" height="30" as="geometry">
            <mxRectangle width="150" height="30" as="alternateBounds" />
          </mxGeometry>
        </mxCell>
        <mxCell id="gjPDRfo1dXahzrAHLrhi-432" value="" style="shape=tableRow;horizontal=0;startSize=0;swimlaneHead=0;swimlaneBody=0;fillColor=none;collapsible=0;dropTarget=0;points=[[0,0.5],[1,0.5]];portConstraint=eastwest;top=0;left=0;right=0;bottom=0;strokeWidth=3;fontSize=15;" vertex="1" parent="gjPDRfo1dXahzrAHLrhi-428">
          <mxGeometry y="60" width="180" height="30" as="geometry" />
        </mxCell>
        <mxCell id="gjPDRfo1dXahzrAHLrhi-433" value="" style="shape=partialRectangle;connectable=0;fillColor=none;top=0;left=0;bottom=0;right=0;editable=1;overflow=hidden;strokeWidth=3;fontSize=15;" vertex="1" parent="gjPDRfo1dXahzrAHLrhi-432">
          <mxGeometry width="30" height="30" as="geometry">
            <mxRectangle width="30" height="30" as="alternateBounds" />
          </mxGeometry>
        </mxCell>
        <mxCell id="gjPDRfo1dXahzrAHLrhi-434" value="Name" style="shape=partialRectangle;connectable=0;fillColor=none;top=0;left=0;bottom=0;right=0;align=left;spacingLeft=6;overflow=hidden;strokeWidth=3;fontSize=15;" vertex="1" parent="gjPDRfo1dXahzrAHLrhi-432">
          <mxGeometry x="30" width="150" height="30" as="geometry">
            <mxRectangle width="150" height="30" as="alternateBounds" />
          </mxGeometry>
        </mxCell>
        <mxCell id="gjPDRfo1dXahzrAHLrhi-435" value="" style="shape=tableRow;horizontal=0;startSize=0;swimlaneHead=0;swimlaneBody=0;fillColor=none;collapsible=0;dropTarget=0;points=[[0,0.5],[1,0.5]];portConstraint=eastwest;top=0;left=0;right=0;bottom=0;strokeWidth=3;fontSize=15;" vertex="1" parent="gjPDRfo1dXahzrAHLrhi-428">
          <mxGeometry y="90" width="180" height="30" as="geometry" />
        </mxCell>
        <mxCell id="gjPDRfo1dXahzrAHLrhi-436" value="FK" style="shape=partialRectangle;connectable=0;fillColor=none;top=0;left=0;bottom=0;right=0;fontStyle=0;overflow=hidden;whiteSpace=wrap;html=1;strokeWidth=3;fontSize=15;" vertex="1" parent="gjPDRfo1dXahzrAHLrhi-435">
          <mxGeometry width="30" height="30" as="geometry">
            <mxRectangle width="30" height="30" as="alternateBounds" />
          </mxGeometry>
        </mxCell>
        <mxCell id="gjPDRfo1dXahzrAHLrhi-437" value="Add_State" style="shape=partialRectangle;connectable=0;fillColor=none;top=0;left=0;bottom=0;right=0;align=left;spacingLeft=6;fontStyle=0;overflow=hidden;whiteSpace=wrap;html=1;strokeWidth=3;fontSize=15;" vertex="1" parent="gjPDRfo1dXahzrAHLrhi-435">
          <mxGeometry x="30" width="150" height="30" as="geometry">
            <mxRectangle width="150" height="30" as="alternateBounds" />
          </mxGeometry>
        </mxCell>
        <mxCell id="gjPDRfo1dXahzrAHLrhi-438" value="Add_Dist" style="shape=table;startSize=30;container=1;collapsible=1;childLayout=tableLayout;fixedRows=1;rowLines=0;fontStyle=1;align=center;resizeLast=1;html=1;fillColor=#dae8fc;strokeColor=#6c8ebf;strokeWidth=3;fontSize=15;" vertex="1" parent="1">
          <mxGeometry x="1039" y="1720" width="180" height="120" as="geometry" />
        </mxCell>
        <mxCell id="gjPDRfo1dXahzrAHLrhi-439" value="" style="shape=tableRow;horizontal=0;startSize=0;swimlaneHead=0;swimlaneBody=0;fillColor=#fff2cc;collapsible=0;dropTarget=0;points=[[0,0.5],[1,0.5]];portConstraint=eastwest;top=0;left=0;right=0;bottom=1;strokeColor=#d6b656;strokeWidth=3;fontSize=15;" vertex="1" parent="gjPDRfo1dXahzrAHLrhi-438">
          <mxGeometry y="30" width="180" height="30" as="geometry" />
        </mxCell>
        <mxCell id="gjPDRfo1dXahzrAHLrhi-440" value="PK" style="shape=partialRectangle;connectable=0;fillColor=none;top=0;left=0;bottom=0;right=0;fontStyle=1;overflow=hidden;whiteSpace=wrap;html=1;strokeWidth=3;fontSize=15;" vertex="1" parent="gjPDRfo1dXahzrAHLrhi-439">
          <mxGeometry width="30" height="30" as="geometry">
            <mxRectangle width="30" height="30" as="alternateBounds" />
          </mxGeometry>
        </mxCell>
        <mxCell id="gjPDRfo1dXahzrAHLrhi-441" value="id" style="shape=partialRectangle;connectable=0;fillColor=none;top=0;left=0;bottom=0;right=0;align=left;spacingLeft=6;fontStyle=5;overflow=hidden;whiteSpace=wrap;html=1;strokeWidth=3;fontSize=15;" vertex="1" parent="gjPDRfo1dXahzrAHLrhi-439">
          <mxGeometry x="30" width="150" height="30" as="geometry">
            <mxRectangle width="150" height="30" as="alternateBounds" />
          </mxGeometry>
        </mxCell>
        <mxCell id="gjPDRfo1dXahzrAHLrhi-442" value="" style="shape=tableRow;horizontal=0;startSize=0;swimlaneHead=0;swimlaneBody=0;fillColor=none;collapsible=0;dropTarget=0;points=[[0,0.5],[1,0.5]];portConstraint=eastwest;top=0;left=0;right=0;bottom=0;strokeWidth=3;fontSize=15;" vertex="1" parent="gjPDRfo1dXahzrAHLrhi-438">
          <mxGeometry y="60" width="180" height="30" as="geometry" />
        </mxCell>
        <mxCell id="gjPDRfo1dXahzrAHLrhi-443" value="" style="shape=partialRectangle;connectable=0;fillColor=none;top=0;left=0;bottom=0;right=0;editable=1;overflow=hidden;strokeWidth=3;fontSize=15;" vertex="1" parent="gjPDRfo1dXahzrAHLrhi-442">
          <mxGeometry width="30" height="30" as="geometry">
            <mxRectangle width="30" height="30" as="alternateBounds" />
          </mxGeometry>
        </mxCell>
        <mxCell id="gjPDRfo1dXahzrAHLrhi-444" value="Name" style="shape=partialRectangle;connectable=0;fillColor=none;top=0;left=0;bottom=0;right=0;align=left;spacingLeft=6;overflow=hidden;strokeWidth=3;fontSize=15;" vertex="1" parent="gjPDRfo1dXahzrAHLrhi-442">
          <mxGeometry x="30" width="150" height="30" as="geometry">
            <mxRectangle width="150" height="30" as="alternateBounds" />
          </mxGeometry>
        </mxCell>
        <mxCell id="gjPDRfo1dXahzrAHLrhi-445" value="" style="shape=tableRow;horizontal=0;startSize=0;swimlaneHead=0;swimlaneBody=0;fillColor=none;collapsible=0;dropTarget=0;points=[[0,0.5],[1,0.5]];portConstraint=eastwest;top=0;left=0;right=0;bottom=0;strokeWidth=3;fontSize=15;" vertex="1" parent="gjPDRfo1dXahzrAHLrhi-438">
          <mxGeometry y="90" width="180" height="30" as="geometry" />
        </mxCell>
        <mxCell id="gjPDRfo1dXahzrAHLrhi-446" value="FK" style="shape=partialRectangle;connectable=0;fillColor=none;top=0;left=0;bottom=0;right=0;fontStyle=0;overflow=hidden;whiteSpace=wrap;html=1;strokeWidth=3;fontSize=15;" vertex="1" parent="gjPDRfo1dXahzrAHLrhi-445">
          <mxGeometry width="30" height="30" as="geometry">
            <mxRectangle width="30" height="30" as="alternateBounds" />
          </mxGeometry>
        </mxCell>
        <mxCell id="gjPDRfo1dXahzrAHLrhi-447" value="Add_Zone" style="shape=partialRectangle;connectable=0;fillColor=none;top=0;left=0;bottom=0;right=0;align=left;spacingLeft=6;fontStyle=0;overflow=hidden;whiteSpace=wrap;html=1;strokeWidth=3;fontSize=15;" vertex="1" parent="gjPDRfo1dXahzrAHLrhi-445">
          <mxGeometry x="30" width="150" height="30" as="geometry">
            <mxRectangle width="150" height="30" as="alternateBounds" />
          </mxGeometry>
        </mxCell>
        <mxCell id="gjPDRfo1dXahzrAHLrhi-448" value="" style="endArrow=none;html=1;rounded=0;entryX=0.5;entryY=0;entryDx=0;entryDy=0;exitX=0.311;exitY=1.071;exitDx=0;exitDy=0;exitPerimeter=0;strokeWidth=3;fontSize=15;" edge="1" parent="1" source="gjPDRfo1dXahzrAHLrhi-336" target="gjPDRfo1dXahzrAHLrhi-394">
          <mxGeometry relative="1" as="geometry">
            <mxPoint x="680" y="1560" as="sourcePoint" />
            <mxPoint x="840" y="1560" as="targetPoint" />
            <Array as="points">
              <mxPoint x="645" y="1640" />
              <mxPoint x="550" y="1640" />
            </Array>
          </mxGeometry>
        </mxCell>
        <mxCell id="gjPDRfo1dXahzrAHLrhi-449" value="" style="endArrow=none;html=1;rounded=0;exitX=0.744;exitY=1.119;exitDx=0;exitDy=0;exitPerimeter=0;entryX=0.5;entryY=0;entryDx=0;entryDy=0;strokeWidth=3;fontSize=15;" edge="1" parent="1" source="gjPDRfo1dXahzrAHLrhi-336" target="gjPDRfo1dXahzrAHLrhi-404">
          <mxGeometry relative="1" as="geometry">
            <mxPoint x="680" y="1560" as="sourcePoint" />
            <mxPoint x="840" y="1560" as="targetPoint" />
            <Array as="points">
              <mxPoint x="730" y="1640" />
              <mxPoint x="810" y="1640" />
            </Array>
          </mxGeometry>
        </mxCell>
        <mxCell id="gjPDRfo1dXahzrAHLrhi-450" value="" style="endArrow=none;html=1;rounded=0;entryX=0.25;entryY=0;entryDx=0;entryDy=0;exitX=0.263;exitY=1.006;exitDx=0;exitDy=0;exitPerimeter=0;strokeWidth=3;fontSize=15;" edge="1" parent="1" source="gjPDRfo1dXahzrAHLrhi-370" target="gjPDRfo1dXahzrAHLrhi-438">
          <mxGeometry relative="1" as="geometry">
            <mxPoint x="1110" y="1560" as="sourcePoint" />
            <mxPoint x="1270" y="1560" as="targetPoint" />
          </mxGeometry>
        </mxCell>
        <mxCell id="gjPDRfo1dXahzrAHLrhi-451" value="" style="endArrow=none;html=1;rounded=0;entryX=0.669;entryY=-0.012;entryDx=0;entryDy=0;entryPerimeter=0;exitX=-0.019;exitY=0.15;exitDx=0;exitDy=0;exitPerimeter=0;strokeWidth=3;fontSize=15;" edge="1" parent="1" source="gjPDRfo1dXahzrAHLrhi-428" target="gjPDRfo1dXahzrAHLrhi-438">
          <mxGeometry relative="1" as="geometry">
            <mxPoint x="1080" y="1600" as="sourcePoint" />
            <mxPoint x="1240" y="1600" as="targetPoint" />
            <Array as="points">
              <mxPoint x="1250" y="1618" />
              <mxPoint x="1250" y="1680" />
              <mxPoint x="1160" y="1680" />
            </Array>
          </mxGeometry>
        </mxCell>
        <mxCell id="gjPDRfo1dXahzrAHLrhi-452" value="" style="endArrow=none;html=1;rounded=0;entryX=0.219;entryY=-0.021;entryDx=0;entryDy=0;entryPerimeter=0;exitX=1.013;exitY=0.167;exitDx=0;exitDy=0;exitPerimeter=0;strokeWidth=3;fontSize=15;" edge="1" parent="1" source="gjPDRfo1dXahzrAHLrhi-382" target="gjPDRfo1dXahzrAHLrhi-428">
          <mxGeometry relative="1" as="geometry">
            <mxPoint x="1080" y="1600" as="sourcePoint" />
            <mxPoint x="1240" y="1600" as="targetPoint" />
            <Array as="points">
              <mxPoint x="1319" y="1575" />
            </Array>
          </mxGeometry>
        </mxCell>
        <mxCell id="gjPDRfo1dXahzrAHLrhi-453" value="" style="endArrow=none;html=1;rounded=0;entryX=0.502;entryY=1.039;entryDx=0;entryDy=0;entryPerimeter=0;exitX=0.5;exitY=0;exitDx=0;exitDy=0;strokeWidth=3;fontSize=15;" edge="1" parent="1" source="gjPDRfo1dXahzrAHLrhi-428" target="gjPDRfo1dXahzrAHLrhi-425">
          <mxGeometry relative="1" as="geometry">
            <mxPoint x="1320" y="1600" as="sourcePoint" />
            <mxPoint x="1480" y="1600" as="targetPoint" />
          </mxGeometry>
        </mxCell>
        <mxCell id="gjPDRfo1dXahzrAHLrhi-454" value="" style="endArrow=none;html=1;rounded=0;exitX=0.5;exitY=0;exitDx=0;exitDy=0;entryX=0.499;entryY=1.063;entryDx=0;entryDy=0;entryPerimeter=0;strokeWidth=3;fontSize=15;" edge="1" parent="1" source="gjPDRfo1dXahzrAHLrhi-418" target="gjPDRfo1dXahzrAHLrhi-415">
          <mxGeometry relative="1" as="geometry">
            <mxPoint x="1320" y="1420" as="sourcePoint" />
            <mxPoint x="1480" y="1420" as="targetPoint" />
          </mxGeometry>
        </mxCell>
        <mxCell id="gjPDRfo1dXahzrAHLrhi-455" value="" style="endArrow=none;html=1;rounded=0;exitX=0.25;exitY=0;exitDx=0;exitDy=0;entryX=1;entryY=0.286;entryDx=0;entryDy=0;entryPerimeter=0;strokeWidth=3;fontSize=15;" edge="1" parent="1" source="gjPDRfo1dXahzrAHLrhi-418" target="gjPDRfo1dXahzrAHLrhi-358">
          <mxGeometry relative="1" as="geometry">
            <mxPoint x="1320" y="1420" as="sourcePoint" />
            <mxPoint x="1480" y="1420" as="targetPoint" />
            <Array as="points">
              <mxPoint x="1325" y="1400" />
            </Array>
          </mxGeometry>
        </mxCell>
        <mxCell id="gjPDRfo1dXahzrAHLrhi-456" value="" style="endArrow=none;html=1;rounded=0;entryX=0.5;entryY=0;entryDx=0;entryDy=0;exitX=0.999;exitY=0.05;exitDx=0;exitDy=0;exitPerimeter=0;strokeWidth=3;fontSize=15;" edge="1" parent="1" source="gjPDRfo1dXahzrAHLrhi-345" target="gjPDRfo1dXahzrAHLrhi-411">
          <mxGeometry relative="1" as="geometry">
            <mxPoint x="1320" y="1300" as="sourcePoint" />
            <mxPoint x="1480" y="1300" as="targetPoint" />
            <Array as="points">
              <mxPoint x="1370" y="1260" />
            </Array>
          </mxGeometry>
        </mxCell>
        <mxCell id="gjPDRfo1dXahzrAHLrhi-459" value="&lt;font style=&quot;font-size: 17px;&quot;&gt;&lt;b&gt;Database Design - Reaprich Actor Registration&lt;/b&gt;&lt;/font&gt;" style="text;html=1;strokeColor=none;fillColor=none;align=center;verticalAlign=middle;whiteSpace=wrap;rounded=0;" vertex="1" parent="1">
          <mxGeometry x="150" y="260" width="380" height="30" as="geometry" />
        </mxCell>
        <mxCell id="gjPDRfo1dXahzrAHLrhi-460" value="Text" style="text;html=1;strokeColor=none;fillColor=none;align=center;verticalAlign=middle;whiteSpace=wrap;rounded=0;" vertex="1" parent="1">
          <mxGeometry x="890" y="670" width="60" height="30" as="geometry" />
        </mxCell>
        <mxCell id="gjPDRfo1dXahzrAHLrhi-461" value="&lt;font style=&quot;font-size: 20px;&quot;&gt;*&lt;/font&gt;" style="text;html=1;strokeColor=none;fillColor=none;align=center;verticalAlign=middle;whiteSpace=wrap;rounded=0;" vertex="1" parent="1">
          <mxGeometry x="360" y="530" width="30" height="30" as="geometry" />
        </mxCell>
        <mxCell id="gjPDRfo1dXahzrAHLrhi-463" value="&lt;font style=&quot;font-size: 20px;&quot;&gt;*&lt;/font&gt;" style="text;html=1;strokeColor=none;fillColor=none;align=center;verticalAlign=middle;whiteSpace=wrap;rounded=0;" vertex="1" parent="1">
          <mxGeometry x="440" y="530" width="30" height="30" as="geometry" />
        </mxCell>
        <mxCell id="gjPDRfo1dXahzrAHLrhi-464" value="&lt;font style=&quot;font-size: 20px;&quot;&gt;*&lt;/font&gt;" style="text;html=1;strokeColor=none;fillColor=none;align=center;verticalAlign=middle;whiteSpace=wrap;rounded=0;" vertex="1" parent="1">
          <mxGeometry x="640" y="530" width="30" height="30" as="geometry" />
        </mxCell>
        <mxCell id="gjPDRfo1dXahzrAHLrhi-465" value="&lt;font style=&quot;font-size: 20px;&quot;&gt;*&lt;/font&gt;" style="text;html=1;strokeColor=none;fillColor=none;align=center;verticalAlign=middle;whiteSpace=wrap;rounded=0;" vertex="1" parent="1">
          <mxGeometry x="860" y="530" width="30" height="30" as="geometry" />
        </mxCell>
        <mxCell id="gjPDRfo1dXahzrAHLrhi-466" value="&lt;font style=&quot;font-size: 20px;&quot;&gt;*&lt;/font&gt;" style="text;html=1;strokeColor=none;fillColor=none;align=center;verticalAlign=middle;whiteSpace=wrap;rounded=0;" vertex="1" parent="1">
          <mxGeometry x="920" y="530" width="30" height="30" as="geometry" />
        </mxCell>
        <mxCell id="gjPDRfo1dXahzrAHLrhi-467" value="&lt;font style=&quot;font-size: 20px;&quot;&gt;1&lt;/font&gt;" style="text;html=1;strokeColor=none;fillColor=none;align=center;verticalAlign=middle;whiteSpace=wrap;rounded=0;" vertex="1" parent="1">
          <mxGeometry x="370" y="440" width="30" height="30" as="geometry" />
        </mxCell>
        <mxCell id="gjPDRfo1dXahzrAHLrhi-468" value="&lt;font style=&quot;font-size: 20px;&quot;&gt;1&lt;/font&gt;" style="text;html=1;strokeColor=none;fillColor=none;align=center;verticalAlign=middle;whiteSpace=wrap;rounded=0;" vertex="1" parent="1">
          <mxGeometry x="610" y="410" width="30" height="30" as="geometry" />
        </mxCell>
        <mxCell id="gjPDRfo1dXahzrAHLrhi-469" value="&lt;font style=&quot;font-size: 20px;&quot;&gt;1&lt;/font&gt;" style="text;html=1;strokeColor=none;fillColor=none;align=center;verticalAlign=middle;whiteSpace=wrap;rounded=0;" vertex="1" parent="1">
          <mxGeometry x="640" y="410" width="30" height="30" as="geometry" />
        </mxCell>
        <mxCell id="gjPDRfo1dXahzrAHLrhi-470" value="&lt;font style=&quot;font-size: 20px;&quot;&gt;1&lt;/font&gt;" style="text;html=1;strokeColor=none;fillColor=none;align=center;verticalAlign=middle;whiteSpace=wrap;rounded=0;" vertex="1" parent="1">
          <mxGeometry x="710" y="410" width="30" height="30" as="geometry" />
        </mxCell>
        <mxCell id="gjPDRfo1dXahzrAHLrhi-471" value="&lt;font style=&quot;font-size: 20px;&quot;&gt;1&lt;/font&gt;" style="text;html=1;strokeColor=none;fillColor=none;align=center;verticalAlign=middle;whiteSpace=wrap;rounded=0;" vertex="1" parent="1">
          <mxGeometry x="920" y="440" width="30" height="30" as="geometry" />
        </mxCell>
        <mxCell id="gjPDRfo1dXahzrAHLrhi-472" value="&lt;font style=&quot;font-size: 20px;&quot;&gt;*&lt;/font&gt;" style="text;html=1;strokeColor=none;fillColor=none;align=center;verticalAlign=middle;whiteSpace=wrap;rounded=0;" vertex="1" parent="1">
          <mxGeometry x="610" y="1600" width="30" height="30" as="geometry" />
        </mxCell>
        <mxCell id="gjPDRfo1dXahzrAHLrhi-473" value="&lt;font style=&quot;font-size: 20px;&quot;&gt;*&lt;/font&gt;" style="text;html=1;strokeColor=none;fillColor=none;align=center;verticalAlign=middle;whiteSpace=wrap;rounded=0;" vertex="1" parent="1">
          <mxGeometry x="730" y="1600" width="30" height="30" as="geometry" />
        </mxCell>
        <mxCell id="gjPDRfo1dXahzrAHLrhi-474" value="&lt;font style=&quot;font-size: 20px;&quot;&gt;*&lt;/font&gt;" style="text;html=1;strokeColor=none;fillColor=none;align=center;verticalAlign=middle;whiteSpace=wrap;rounded=0;" vertex="1" parent="1">
          <mxGeometry x="1050" y="1630" width="30" height="30" as="geometry" />
        </mxCell>
        <mxCell id="gjPDRfo1dXahzrAHLrhi-475" value="&lt;font style=&quot;font-size: 20px;&quot;&gt;*&lt;/font&gt;" style="text;html=1;strokeColor=none;fillColor=none;align=center;verticalAlign=middle;whiteSpace=wrap;rounded=0;" vertex="1" parent="1">
          <mxGeometry x="1224" y="1550" width="30" height="30" as="geometry" />
        </mxCell>
        <mxCell id="gjPDRfo1dXahzrAHLrhi-476" value="&lt;font style=&quot;font-size: 20px;&quot;&gt;*&lt;/font&gt;" style="text;html=1;strokeColor=none;fillColor=none;align=center;verticalAlign=middle;whiteSpace=wrap;rounded=0;" vertex="1" parent="1">
          <mxGeometry x="1224" y="1370" width="30" height="30" as="geometry" />
        </mxCell>
        <mxCell id="gjPDRfo1dXahzrAHLrhi-477" value="&lt;font style=&quot;font-size: 20px;&quot;&gt;*&lt;/font&gt;" style="text;html=1;strokeColor=none;fillColor=none;align=center;verticalAlign=middle;whiteSpace=wrap;rounded=0;" vertex="1" parent="1">
          <mxGeometry x="1224" y="1230" width="30" height="30" as="geometry" />
        </mxCell>
        <mxCell id="gjPDRfo1dXahzrAHLrhi-478" value="&lt;font style=&quot;font-size: 20px;&quot;&gt;1&lt;/font&gt;" style="text;html=1;strokeColor=none;fillColor=none;align=center;verticalAlign=middle;whiteSpace=wrap;rounded=0;" vertex="1" parent="1">
          <mxGeometry x="520" y="1650" width="30" height="30" as="geometry" />
        </mxCell>
        <mxCell id="gjPDRfo1dXahzrAHLrhi-479" value="&lt;font style=&quot;font-size: 20px;&quot;&gt;1&lt;/font&gt;" style="text;html=1;strokeColor=none;fillColor=none;align=center;verticalAlign=middle;whiteSpace=wrap;rounded=0;" vertex="1" parent="1">
          <mxGeometry x="810" y="1650" width="30" height="30" as="geometry" />
        </mxCell>
        <mxCell id="gjPDRfo1dXahzrAHLrhi-480" value="&lt;font style=&quot;font-size: 20px;&quot;&gt;1&lt;/font&gt;" style="text;html=1;strokeColor=none;fillColor=none;align=center;verticalAlign=middle;whiteSpace=wrap;rounded=0;" vertex="1" parent="1">
          <mxGeometry x="1050" y="1690" width="30" height="30" as="geometry" />
        </mxCell>
        <mxCell id="gjPDRfo1dXahzrAHLrhi-481" value="&lt;font style=&quot;font-size: 20px;&quot;&gt;1&lt;/font&gt;" style="text;html=1;strokeColor=none;fillColor=none;align=center;verticalAlign=middle;whiteSpace=wrap;rounded=0;" vertex="1" parent="1">
          <mxGeometry x="1290" y="1570" width="30" height="30" as="geometry" />
        </mxCell>
        <mxCell id="gjPDRfo1dXahzrAHLrhi-482" value="&lt;font style=&quot;font-size: 20px;&quot;&gt;1&lt;/font&gt;" style="text;html=1;strokeColor=none;fillColor=none;align=center;verticalAlign=middle;whiteSpace=wrap;rounded=0;" vertex="1" parent="1">
          <mxGeometry x="1290" y="1410" width="30" height="30" as="geometry" />
        </mxCell>
        <mxCell id="gjPDRfo1dXahzrAHLrhi-483" value="&lt;font style=&quot;font-size: 20px;&quot;&gt;1&lt;/font&gt;" style="text;html=1;strokeColor=none;fillColor=none;align=center;verticalAlign=middle;whiteSpace=wrap;rounded=0;" vertex="1" parent="1">
          <mxGeometry x="1370" y="1250" width="30" height="30" as="geometry" />
        </mxCell>
        <mxCell id="gjPDRfo1dXahzrAHLrhi-484" value="&lt;font style=&quot;font-size: 20px;&quot;&gt;1&lt;/font&gt;" style="text;html=1;strokeColor=none;fillColor=none;align=center;verticalAlign=middle;whiteSpace=wrap;rounded=0;" vertex="1" parent="1">
          <mxGeometry x="1370" y="1370" width="30" height="30" as="geometry" />
        </mxCell>
        <mxCell id="gjPDRfo1dXahzrAHLrhi-485" value="&lt;font style=&quot;font-size: 20px;&quot;&gt;1&lt;/font&gt;" style="text;html=1;strokeColor=none;fillColor=none;align=center;verticalAlign=middle;whiteSpace=wrap;rounded=0;" vertex="1" parent="1">
          <mxGeometry x="1370" y="1550" width="30" height="30" as="geometry" />
        </mxCell>
        <mxCell id="gjPDRfo1dXahzrAHLrhi-486" value="&lt;font style=&quot;font-size: 20px;&quot;&gt;*&lt;/font&gt;" style="text;html=1;strokeColor=none;fillColor=none;align=center;verticalAlign=middle;whiteSpace=wrap;rounded=0;" vertex="1" parent="1">
          <mxGeometry x="1370" y="1580" width="30" height="30" as="geometry" />
        </mxCell>
        <mxCell id="gjPDRfo1dXahzrAHLrhi-487" value="&lt;font style=&quot;font-size: 20px;&quot;&gt;*&lt;/font&gt;" style="text;html=1;strokeColor=none;fillColor=none;align=center;verticalAlign=middle;whiteSpace=wrap;rounded=0;" vertex="1" parent="1">
          <mxGeometry x="1370" y="1410" width="30" height="30" as="geometry" />
        </mxCell>
        <mxCell id="gjPDRfo1dXahzrAHLrhi-488" value="&lt;font style=&quot;font-size: 20px;&quot;&gt;*&lt;/font&gt;" style="text;html=1;strokeColor=none;fillColor=none;align=center;verticalAlign=middle;whiteSpace=wrap;rounded=0;" vertex="1" parent="1">
          <mxGeometry x="1160" y="1690" width="30" height="30" as="geometry" />
        </mxCell>
        <mxCell id="gjPDRfo1dXahzrAHLrhi-489" value="&lt;font style=&quot;font-size: 20px;&quot;&gt;1&lt;/font&gt;" style="text;html=1;strokeColor=none;fillColor=none;align=center;verticalAlign=middle;whiteSpace=wrap;rounded=0;" vertex="1" parent="1">
          <mxGeometry x="1250" y="1620" width="30" height="30" as="geometry" />
        </mxCell>
        <mxCell id="gjPDRfo1dXahzrAHLrhi-490" value="&lt;font style=&quot;font-size: 20px;&quot;&gt;1&lt;/font&gt;" style="text;html=1;strokeColor=none;fillColor=none;align=center;verticalAlign=middle;whiteSpace=wrap;rounded=0;" vertex="1" parent="1">
          <mxGeometry x="600" y="1210" width="30" height="30" as="geometry" />
        </mxCell>
        <mxCell id="gjPDRfo1dXahzrAHLrhi-491" value="&lt;font style=&quot;font-size: 20px;&quot;&gt;1&lt;/font&gt;" style="text;html=1;strokeColor=none;fillColor=none;align=center;verticalAlign=middle;whiteSpace=wrap;rounded=0;" vertex="1" parent="1">
          <mxGeometry x="425" y="1130" width="30" height="30" as="geometry" />
        </mxCell>
        <mxCell id="gjPDRfo1dXahzrAHLrhi-492" value="&lt;font style=&quot;font-size: 20px;&quot;&gt;1&lt;/font&gt;" style="text;html=1;strokeColor=none;fillColor=none;align=center;verticalAlign=middle;whiteSpace=wrap;rounded=0;" vertex="1" parent="1">
          <mxGeometry x="670" y="1210" width="30" height="30" as="geometry" />
        </mxCell>
        <mxCell id="gjPDRfo1dXahzrAHLrhi-493" value="&lt;font style=&quot;font-size: 20px;&quot;&gt;1&lt;/font&gt;" style="text;html=1;strokeColor=none;fillColor=none;align=center;verticalAlign=middle;whiteSpace=wrap;rounded=0;" vertex="1" parent="1">
          <mxGeometry x="670" y="950" width="30" height="30" as="geometry" />
        </mxCell>
        <mxCell id="gjPDRfo1dXahzrAHLrhi-494" value="" style="endArrow=none;html=1;rounded=0;exitX=0.75;exitY=1;exitDx=0;exitDy=0;entryX=0.5;entryY=0;entryDx=0;entryDy=0;strokeWidth=3;" edge="1" parent="1" source="gjPDRfo1dXahzrAHLrhi-127" target="gjPDRfo1dXahzrAHLrhi-345">
          <mxGeometry relative="1" as="geometry">
            <mxPoint x="840" y="1050" as="sourcePoint" />
            <mxPoint x="1000" y="1050" as="targetPoint" />
            <Array as="points">
              <mxPoint x="715" y="1080" />
              <mxPoint x="1129" y="1080" />
            </Array>
          </mxGeometry>
        </mxCell>
        <mxCell id="gjPDRfo1dXahzrAHLrhi-495" value="" style="endArrow=none;html=1;rounded=0;exitX=0.674;exitY=1.067;exitDx=0;exitDy=0;entryX=0.25;entryY=0;entryDx=0;entryDy=0;strokeWidth=3;exitPerimeter=0;" edge="1" parent="1" source="gjPDRfo1dXahzrAHLrhi-124" target="gjPDRfo1dXahzrAHLrhi-345">
          <mxGeometry relative="1" as="geometry">
            <mxPoint x="725" y="960" as="sourcePoint" />
            <mxPoint x="1139" y="1250" as="targetPoint" />
            <Array as="points">
              <mxPoint x="481" y="1160" />
              <mxPoint x="730" y="1160" />
              <mxPoint x="1080" y="1160" />
            </Array>
          </mxGeometry>
        </mxCell>
        <mxCell id="gjPDRfo1dXahzrAHLrhi-496" value="&lt;font style=&quot;font-size: 20px;&quot;&gt;1&lt;/font&gt;" style="text;html=1;strokeColor=none;fillColor=none;align=center;verticalAlign=middle;whiteSpace=wrap;rounded=0;" vertex="1" parent="1">
          <mxGeometry x="640" y="950" width="30" height="30" as="geometry" />
        </mxCell>
        <mxCell id="gjPDRfo1dXahzrAHLrhi-497" value="&lt;font style=&quot;font-size: 20px;&quot;&gt;1&lt;/font&gt;" style="text;html=1;strokeColor=none;fillColor=none;align=center;verticalAlign=middle;whiteSpace=wrap;rounded=0;" vertex="1" parent="1">
          <mxGeometry x="234" y="1210" width="30" height="30" as="geometry" />
        </mxCell>
        <mxCell id="gjPDRfo1dXahzrAHLrhi-498" value="&lt;font style=&quot;font-size: 20px;&quot;&gt;1&lt;/font&gt;" style="text;html=1;strokeColor=none;fillColor=none;align=center;verticalAlign=middle;whiteSpace=wrap;rounded=0;" vertex="1" parent="1">
          <mxGeometry x="395" y="1130" width="30" height="30" as="geometry" />
        </mxCell>
        <mxCell id="gjPDRfo1dXahzrAHLrhi-499" value="&lt;font style=&quot;font-size: 20px;&quot;&gt;1&lt;/font&gt;" style="text;html=1;strokeColor=none;fillColor=none;align=center;verticalAlign=middle;whiteSpace=wrap;rounded=0;" vertex="1" parent="1">
          <mxGeometry x="190" y="1210" width="30" height="30" as="geometry" />
        </mxCell>
        <mxCell id="gjPDRfo1dXahzrAHLrhi-500" value="&lt;font style=&quot;font-size: 20px;&quot;&gt;1&lt;/font&gt;" style="text;html=1;strokeColor=none;fillColor=none;align=center;verticalAlign=middle;whiteSpace=wrap;rounded=0;" vertex="1" parent="1">
          <mxGeometry x="480" y="1130" width="30" height="30" as="geometry" />
        </mxCell>
        <mxCell id="gjPDRfo1dXahzrAHLrhi-501" value="&lt;font style=&quot;font-size: 20px;&quot;&gt;1&lt;/font&gt;" style="text;html=1;strokeColor=none;fillColor=none;align=center;verticalAlign=middle;whiteSpace=wrap;rounded=0;" vertex="1" parent="1">
          <mxGeometry x="1080" y="1210" width="30" height="30" as="geometry" />
        </mxCell>
        <mxCell id="gjPDRfo1dXahzrAHLrhi-502" value="&lt;font style=&quot;font-size: 20px;&quot;&gt;1&lt;/font&gt;" style="text;html=1;strokeColor=none;fillColor=none;align=center;verticalAlign=middle;whiteSpace=wrap;rounded=0;" vertex="1" parent="1">
          <mxGeometry x="720" y="950" width="30" height="30" as="geometry" />
        </mxCell>
        <mxCell id="gjPDRfo1dXahzrAHLrhi-503" value="&lt;font style=&quot;font-size: 20px;&quot;&gt;1&lt;/font&gt;" style="text;html=1;strokeColor=none;fillColor=none;align=center;verticalAlign=middle;whiteSpace=wrap;rounded=0;" vertex="1" parent="1">
          <mxGeometry x="1130" y="1210" width="30" height="30" as="geometry" />
        </mxCell>
        <mxCell id="gjPDRfo1dXahzrAHLrhi-504" value="&lt;font style=&quot;font-size: 20px;&quot;&gt;1&lt;/font&gt;" style="text;html=1;strokeColor=none;fillColor=none;align=center;verticalAlign=middle;whiteSpace=wrap;rounded=0;" vertex="1" parent="1">
          <mxGeometry x="920" y="800" width="30" height="30" as="geometry" />
        </mxCell>
        <mxCell id="gjPDRfo1dXahzrAHLrhi-505" value="&lt;font style=&quot;font-size: 20px;&quot;&gt;1&lt;/font&gt;" style="text;html=1;strokeColor=none;fillColor=none;align=center;verticalAlign=middle;whiteSpace=wrap;rounded=0;" vertex="1" parent="1">
          <mxGeometry x="1180" y="1210" width="30" height="30" as="geometry" />
        </mxCell>
      </root>
    </mxGraphModel>
  </diagram>
</mxfile>
